<svg viewBox="0 0 725 324" fill="#fff" xmlns="http://www.w3.org/2000/svg"><g fill-rule="evenodd"><path d="M148.4 241.6V223c-14-.8-27.5-4.6-35.3-8.6l6.6-27.5c9 4.4 21.3 8.8 35.1 8.8 10 0 17.2-2.8 17.2-9.2 0-6.2-5.8-10-20.7-14.6-21.7-7-37.1-17.2-37.1-37.3 0-18.2 12.6-32.5 35.1-37.1V79.3H172v16.8c13.8.6 23.1 3.4 30.3 6.4l-6.4 26.5c-5.4-2.2-15-6.8-30.1-6.8-11.8 0-15.4 4.2-15.4 8.6 0 5 6.8 8.8 23.5 14.8 25.1 8.2 34.3 19.5 34.3 37.7 0 18.5-13.2 33.7-37.1 38.1v20.3h-22.7v-.1z"></path><path fill-rule="nonzero" d="M161.2 28.3c35.5 0 68.9 13.8 94 38.9 25.1 25.1 38.9 58.5 38.9 94s-13.8 68.9-38.9 94c-25.1 25.1-58.5 38.9-94 38.9s-68.9-13.8-94-38.9c-25.1-25.1-38.9-58.5-38.9-94s13.8-68.9 38.9-94c25.1-25.1 58.5-38.9 94-38.9zm0-28.3C72.2 0 0 72.1 0 161.2s72.2 161.2 161.2 161.2c89 0 161.2-72.2 161.2-161.2C322.4 72.2 250.3 0 161.2 0z"></path><path fill-rule="nonzero" d="M362 29.4c35.6 0 69 13.9 94.2 39 25.2 25.2 39 58.6 39 94.2s-13.9 69-39 94.2c-25.2 25.2-58.6 39-94.2 39-12 0-23.9-1.6-35.3-4.7 8.8-11.2 16.5-23.3 22.8-35.9 14.4-28.9 21.7-60.1 21.7-92.6 0-32.5-7.3-63.6-21.7-92.6-6.3-12.6-14-24.7-22.8-35.9 11.5-3.1 23.3-4.7 35.3-4.7zm0-28c-30.5 0-59 8.5-83.3 23.2 19 15.9 34.7 35.9 45.7 58 12.4 25 18.7 52 18.7 80.1 0 28.1-6.3 55.1-18.7 80.1-11 22.1-26.7 42-45.7 58C303 315.5 331.5 324 362 324c89 0 161.2-72.2 161.2-161.2 0-89-72.1-161.4-161.2-161.4z"></path><path fill-rule="nonzero" d="M563.8 29.4c35.6 0 69 13.9 94.2 39 25.2 25.2 39 58.6 39 94.2s-13.9 69-39 94.2c-25.2 25.2-58.6 39-94.2 39-12 0-23.9-1.6-35.3-4.7 8.8-11.2 16.5-23.3 22.8-35.9 14.4-28.9 21.7-60.1 21.7-92.6 0-32.5-7.3-63.6-21.7-92.6-6.3-12.6-14-24.7-22.8-35.9 11.4-3.1 23.3-4.7 35.3-4.7zm0-28c-30.5 0-59 8.5-83.3 23.2 19 15.9 34.7 35.9 45.7 58 12.4 25 18.7 52 18.7 80.1 0 28.1-6.3 55.1-18.7 80.1-11 22.1-26.7 42-45.7 58 24.3 14.7 52.8 23.2 83.3 23.2 89 0 161.2-72.2 161.2-161.2 0-89-72.2-161.4-161.2-161.4z"></path></g></svg>