<?xml version="1.0" standalone="no"?>
<!DOCTYPE svg PUBLIC "-//W3C//DTD SVG 20010904//EN"
 "http://www.w3.org/TR/2001/REC-SVG-20010904/DTD/svg10.dtd">
<svg version="1.0" xmlns="http://www.w3.org/2000/svg"
 width="180.000000pt" height="180.000000pt" viewBox="0 0 180.000000 180.000000"
 preserveAspectRatio="xMidYMid meet">
<metadata>
Created by potrace 1.11, written by Peter Selinger 2001-2013
</metadata>
<g transform="translate(0.000000,180.000000) scale(0.100000,-0.100000)"
fill="#000000" stroke="none">
<path d="M29 1771 l-29 -29 0 -842 0 -842 29 -29 29 -29 842 0 842 0 29 29 29
29 0 842 0 842 -29 29 -29 29 -842 0 -842 0 -29 -29z m1075 -449 c95 -48 169
-119 208 -202 22 -46 25 -49 61 -50 46 0 82 -18 121 -59 23 -24 30 -42 34 -84
8 -99 -45 -166 -139 -175 -47 -4 -50 -6 -79 -59 -89 -157 -234 -243 -410 -243
-178 0 -332 93 -408 246 l-25 52 -57 4 c-213 15 -201 318 13 318 43 0 44 1 68
52 31 68 120 158 189 193 88 45 135 55 243 51 91 -3 103 -6 181 -44z"/>
<path d="M655 1131 c-70 -18 -125 -63 -161 -131 -27 -51 -26 -172 3 -225 28
-53 68 -89 126 -115 26 -11 47 -27 47 -35 0 -25 69 -93 117 -116 126 -61 331
5 359 115 3 15 18 30 37 37 120 50 181 208 126 329 -73 162 -264 195 -377 65
l-32 -36 -32 36 c-54 63 -143 94 -213 76z m123 -233 c7 -7 12 -21 12 -33 0
-29 -19 -45 -52 -45 -36 0 -56 36 -39 69 13 23 59 29 79 9z m323 -9 c8 -16 8
-28 0 -46 -9 -20 -17 -24 -43 -21 -39 4 -61 45 -38 72 19 24 67 20 81 -5z"/>
</g>
</svg>
