<?xml version="1.0" encoding="utf-8"?>
<svg xmlns="http://www.w3.org/2000/svg" xmlns:xlink="http://www.w3.org/1999/xlink">
<symbol fill="#FFF" viewBox="0 0 34 25" id="icon-status__diamond" xmlns="http://www.w3.org/2000/svg"><path d="M16.795.029l3.924 12.456s-2.913 2.538-4.518 3.708c-1.605 1.17-4.383 2.4-4.383 2.4l-7.656-.376L.98 14.406S.268 10.654.208 8.253C.148 5.852 0 2.82 0 2.82S4.459.93 8.026.39c3.567-.54 8.769-.36 8.769-.36zm-6.78 16.673l6.086-5.832-3.138-5.642-3.867 1.744-3.93-1.585-2.599 5.42 5.103 5.895h2.345zm.079-7.67l2.656-1.595v1.557l-2.656.037zm-1.594 0l-2.656-.038V7.438L8.5 9.03zm2.67 2.655c-1.25 1.074-1.96 1.61-2.127 1.609-.253-.003-2.137-1.608-2.137-1.608h4.264zm5.723-6.047c.127-.982-.919-1.901-2.44-.95l1.363 2.535s.95-.602 1.077-1.585zM2.028 5.07a1.749 1.749 0 00.793 2.155l1.11-2.44s-1.427-1.236-1.903.285z"/><path d="M20.406 5.901l2.053 7.051-9.177 6.917-3.193-.095 3.167 4.754h1.711l-.38-2.63 2.092 2.25.95-.064-.031-2.092 3.36-.697-.032 2.6 1.14.158 1.078-2.758 1.395-1.901-1.205 4.785 2.948-1.172L29.99 8.459l2.346-4.089s1.363-1.077 1.553-2.345c.19-1.268.164-1.752-.856-1.363-3.328 1.268-1.838 3.328-1.838 3.328l-3.518 3.74-7.27-1.829z"/></symbol>
<symbol fill="#FFF" viewBox="0 0 67 39" id="icon-status__golden" xmlns="http://www.w3.org/2000/svg"><path d="M25.396 19.304L40.23 9.769l.54.842-15.376 9.883L6.781 8.451l.544-.84z"/><path d="M38.707 13.639l.586.81-12.98 9.395L5.741 7.423l.624-.782 19.978 15.947z"/><path d="M36.857 18.919l.588.808-11.038 8.029L10.14 10.878l.72-.694 15.663 16.252z"/><path d="M25.361.411l-3.135 4.644L7.732 3.784 4.002.743 0 6.437s.648 4.478 1.839 4.644c1.189.166 2.163-2.1 2.163-2.1l21.67 7.504 10.76-6.256 2.989 1.792-12.275 22.114-4.001 4.866h11.626l.811-3.761 16.114-3.095-2.919 4.755 11.031-1.162-1.785-2.322L59.7 29.27l7.3-5.75-8.761-15.701c1.298-1.105 4.975-.11 4.219-1.824-1.276-2.885-8.274-4.644-12.708-4.036-4.435.609-3.083 1.99-.594 4.036 2.486 2.046 6.434 8.182 6.434 8.182s-4.489-3.704-7.3-6.136C45.477 5.608 35.312.688 33.798.135a2.268 2.268 0 00-.78-.135c-1.229 0-2.303.908-2.303.908L25.361.411zM28 5a2 2 0 114 .002A2 2 0 0128 5z"/><path d="M11.001 36.95c-.111.113 9.796 0 9.796 0L23 32.208 17.44 26c-2.476 8.636-6.328 10.837-6.439 10.95z"/></symbol>
<symbol fill="#FFF" viewBox="0 0 26 25" id="icon-status__platinum" xmlns="http://www.w3.org/2000/svg"><path d="M16.818 11.832l1.293 1.757 5.631-8.319s-2.74-2.092-5.656-3.203C15.169.956 12.404.103 12.404.103s-.888-.336-2.816.259C7.66.956 5.124 2.04 5.124 2.04S4.49 4.263 4.49 6.536c0 2.274.203 5.503.203 5.503l-2.41-3.333 1.37-5.683S4.21 1.55 3.019 1.11c-1.193-.44-1.522.413-1.522.413l-.38.93 1.064.543L0 11.057s.939 1.576 2.055 2.739c1.116 1.163 3.475 2.273 3.475 2.273l11.288-4.237zM6.136 9.233c.074-.245.393-.362.713-.262.32.1.52.38.446.624-.073.245-.392.362-.713.262-.32-.1-.52-.38-.446-.624zm3.49.066c.114-.377.607-.558 1.101-.404.495.154.803.586.69.963-.114.378-.607.559-1.101.404-.495-.154-.803-.585-.69-.963zm8.685-4.619s1.969.694 1.969 2.952c0 2.257-3.057 1.678-3.057 1.678s.57-.695 1.088-2.2c.518-1.504 0-2.43 0-2.43z"/><path d="M16.615 12.97l-8.117 3.1s.355 2.945.634 4.314c.279 1.37 1.014 2.997 1.014 2.997l1.37.206.634-4.082.584 4.935h4.845l.735-4.314.71.645v3.178h1.548l3.55-5.244.381 3.022-.228 1.137.406.698.254-.62v.8l.304.207v-2.04l-.203-.466-.177.336.38-4.805.761-2.067s-.355-2.506-.888-4.134a14.027 14.027 0 00-1.37-2.92l-5.428 7.002-1.7-1.886z"/></symbol>
<symbol fill="#FFF" viewBox="0 0 31 21" id="icon-status__silver" xmlns="http://www.w3.org/2000/svg"><g fill-rule="evenodd"><path d="M3.022 3.116S1.37 3.874.964 4.524c-.407.65 0 1.597 0 1.597S-.363 5.363.097 3.874c.46-1.49 1.408-1.49 1.408-1.49l1.517.732z"/><path d="M2.385 1.56C2.547.937 3.278.477 5.39.477s3.331.27 3.331.27l4.576 4.929-2.356.108-1.489 2.167-2.247-.569-1.219 2.627h-1.3L2.71 3.808l1.706-.975L2.385 1.56zm1.907.825s.271.65.948.65c.677 0 .948-.65.948-.65H4.292z"/><path d="M10.987.878s2.654 1.814 3.682 5.551l-2.87.38L9.85 9.19H7.928l-1.381 1.923h-1.3l2.329 5.064 5.28 1.137.244 2.356s-1.814 1.002-1.679 1.029c.135.027 2.166 0 2.166 0l1.977-3.141s8.584 1.624 8.746 1.624c.163 0 6.608-5.063 6.608-5.063l-14.785-.38 2.762-.758s-1.517-1.245-1.408-1.218c.108.027 2.762.975 2.762.975l1.462-.055s-2.058-2.843-1.95-2.762c.109.082 3.168 2.383 3.33 2.33.163-.055 2.221-.217 2.221-.217l-.84-4.333 2.059 3.98 4.387-.893-6.174-9.234S18.84-.449 11.42.093l-.433.785z"/><path d="M10.432 17.169l1.652.379-1.165 2.031-1.381.081 1.057-.704z"/></g></symbol>
<symbol viewBox="0 0 32 25" id="icon-status__wooden" xmlns="http://www.w3.org/2000/svg"><defs><path id="bua" d="M.258.092h2.805v3.87H.258z"/><path id="buc" d="M.057.052h11.298v18.372H.057z"/></defs><g fill="none" fill-rule="evenodd"><path fill="#FFF" fill-rule="nonzero" d="M2.105 15.061c.03 1.924 1.283 4.367 1.283 4.367s1.13-.183 2.687-.458 3.236-1.466 3.236-1.466-.305-1.832-.427-3.665c-.122-1.832-1.16-5.1-1.16-5.1-1.618.062-5.619 2.872-5.619 2.872s-.03 1.526 0 3.45zm7.482 7.237l1.404-1.252s-1.587-.61-3.267.275l1.863.977zm6.26-3.084s.488-3.084.55-4.855c.06-1.772-.245-3.481-.245-3.481s-3.39-2.535-6.565-2.077c0 0-.122 2.749.152 5.283a78.174 78.174 0 00.702 4.886l5.406.244zM.242 7.06l4 .611s3.207-.61 5.223-.61c2.015 0 4.824.824 4.824.824l3.94-.336.7 1.496-3.144 11.91-5.04 2.656s-.274.214-1.037.214c-.764 0-1.863-.58-1.863-.58l-5.71-3.267S.852 16.832.791 14.97c-.06-1.863.428-4.092.428-4.092L.241 7.06h.001z"/><path fill="#FFF" fill-rule="nonzero" d="M5.556 15.642a.55.55 0 100-1.1.55.55 0 000 1.1M5.22 11.55c1.099-.122 1.984.672 2.504 1.71.519 1.038.824 3.45-1.405 4.367-2.229.915-2.962-.672-3.328-1.924-.367-1.253.151-3.923 2.229-4.153m7.79 4.217c.304.049.588-.141.633-.423.043-.282-.168-.55-.473-.597-.306-.048-.59.142-.633.423-.044.282.167.55.472.597m.26-3.852c1.124.06 1.899.938 2.269 1.984.37 1.046.325 3.334-2.051 3.832-2.376.498-2.88-1.092-3.067-2.313-.185-1.22.726-3.618 2.85-3.503m11.352-8.284l3.225.396-1.328 2.587a9.626 9.626 0 00-2.355-.803l.458-2.18zm3.075 10.989l.132-1.863 3.964.688.207 1.647-.976 1.039zm-5.245-9.124a87.35 87.35 0 00-2.416-.387l.52-1.971c.716.085 1.456.175 2.195.265l-.299 2.093zm-6.746-.791l.457-2.088c.595.068 1.345.156 2.19.256l-.204 1.994c-.915-.1-1.764-.163-2.443-.162z"/><g transform="matrix(-1 0 0 1 12.606 .393)"><mask id="bub" fill="#fff"><use xlink:href="#bua"/></mask><path fill="#FFF" fill-rule="nonzero" d="M1.615.102c-.101-.09-.457.405-1.357.947.394.65 1.314 2.21 1.728 2.913.366-.265.72-.544 1.064-.837 0 0 .245-1.526-1.435-3.023" mask="url(#bub)"/></g><g transform="matrix(-1 0 0 1 28.606 5.727)"><mask id="bud" fill="#fff"><use xlink:href="#buc"/></mask><path fill="#FFF" fill-rule="nonzero" d="M10.195.51L8.85 3.136l2.504 12.55-2.138 2.657s-2.748.183-2.687 0c.061-.183.489-3.94.489-3.94l-2.229.336 1.038 2.962-2.534-.03L.057 13.06s1.099-1.405 1.343-2.748c.244-1.344-.091-5.497-.091-5.497s1.496-1.71 2.687-2.626C5.186 1.273 6.805.052 6.805.052l3.39.458z" mask="url(#bud)"/></g><path fill="#FFF" fill-rule="nonzero" d="M13.145 1.857a8.714 8.714 0 001.515.508l-.504 2.598c-1.112.428-1.701.477-2.554.021a2.975 2.975 0 01-.134-.074l1.677-3.053zm18.128 7.437l-3.317 1.674.191-2.7 2.648-2.794z"/></g></symbol><symbol viewBox="0 0 81 87" id="icon-tournament-monkeyKing" xmlns="http://www.w3.org/2000/svg"><g fill-rule="evenodd"><path d="M30.8 57.3c-1.5 0-2.7 1.2-2.7 2.7 0 1.5 1.2 2.7 2.7 2.7 1.5 0 2.7-1.2 2.7-2.7 0-1.5-1.2-2.7-2.7-2.7zm19.9 0c-1.5 0-2.7 1.2-2.7 2.7 0 1.5 1.2 2.7 2.7 2.7 1.5 0 2.7-1.2 2.7-2.7 0-1.5-1.2-2.7-2.7-2.7z"/><path fill-rule="nonzero" d="M70.5 47.5c-.8 0-1.5.1-2.3.3-2.6-7.2-7.9-13-14.7-16.3-1.7-.8-3.5-1.5-5.3-1.9-.9-.2-1.9-.4-2.8-.6-1.4-.2-2.9-.3-4.4-.3-1.5 0-3 .1-4.4.3-1 .1-1.9.3-2.8.6-1.8.5-3.6 1.1-5.3 1.9-6.9 3.3-12.2 9.2-14.7 16.5-1-.3-2-.5-3.1-.5-5.5 0-10 4.5-10 10s4.5 10 10 10c1.1 0 2.1-.2 3.1-.5 3.9 11.3 14.7 19.4 27.3 19.4 12.5 0 23.2-8 27.2-19.1.7.2 1.5.3 2.3.3 5.5 0 10-4.5 10-10-.1-5.6-4.6-10.1-10.1-10.1zM41 83c-14 0-25.4-11.4-25.4-25.4 0-.9.1-1.9.2-2.8 1.4-5.8 7.1-10.2 13.3-10.2 5.2 0 9.7 3.1 11.7 7.6 2-4.5 6.5-7.6 11.7-7.6 7.1 0 13.6 5.9 13.6 13l.1 3.6C64.4 73.4 53.8 83 41 83z"/><path d="M60.8 28.2c.2-1-.5-1.9-1.4-2.1l-20.2-3.7c-1-.2-1.9.5-2.1 1.4-.2 1 .5 1.9 1.4 2.1l20.2 3.7c1 .2 1.9-.5 2.1-1.4zM38 9.2c0 .1 0 .1 0 0l1 10.6 10.7 2 10.7 2 4.6-9.6h.1c1.2.2 2.3-.6 2.5-1.7.2-1.2-.6-2.3-1.7-2.5-1.2-.2-2.3.6-2.5 1.7v.7l-5.6 2-3.8-10c.6-.3 1.1-.8 1.3-1.6.2-1.2-.6-2.3-1.7-2.5-1.2-.2-2.3.6-2.5 1.7-.1.7.1 1.4.6 1.9l-7.1 8L40.1 8c.1-.2.2-.4.2-.6.2-1.2-.6-2.3-1.7-2.5-1.2-.2-2.3.6-2.5 1.7 0 1.3.7 2.4 1.9 2.6z"/></g></symbol><symbol viewBox="0 0 21 29" id="icon-trophy-bag" xmlns="http://www.w3.org/2000/svg"><g fill-rule="evenodd"><path fill-rule="nonzero" d="M10.442 8.59a18.376 18.376 0 01-1.518-.144l-.797-.103A4.902 4.902 0 007.6 8.3h-.223l-.149-.166C6.19 6.981 4.774 2.814 5.121 1.656l.107-.356H5.9c.84 0 2.019.589 3.077 1.384.585.39 1.068.68 1.447.869.075.038.15.047.376.047.585 0 1.09-.327 2.246-1.354C13.897 1.396 14.663.8 15.2.8h.207l.147.146.162.177c.868 1.301-.521 5.89-1.762 7.13l-.098.098-.135.034c-.504.126-1.6.215-2.821.215-.148 0-.3-.004-.458-.01zM8.245 7.35l.806.104c.579.074 1.011.117 1.436.136.143.007.28.01.413.01 1.032 0 1.966-.067 2.44-.155.88-1.047 1.956-4.572 1.667-5.553-.285.183-.806.614-1.275 1.082C12.356 4.197 11.733 4.6 10.8 4.6c-.375 0-.566-.024-.824-.153-.42-.21-.938-.52-1.576-.947-.84-.63-1.765-1.11-2.345-1.189.071 1.163 1.064 4.002 1.792 5 .113.008.243.02.398.04zm6.268 2.558l.263-.047.185.193c2.344 2.45 5.336 8.253 5.439 10.746 0 4.902-4.222 7.5-9.8 7.5S.8 25.702.8 20.8c0-2.34 3.42-8.438 5.855-10.762l.218-.208.285.096c.328.109.72.143.942.174.145.02.368.056.74.1.008.002.044-.003.59 0 .545.005 3.434-.001 5.083-.292zM9.4 11.2c-.649-.018-1.092-.046-1.331-.082-.31-.047-.606-.068-.928-.154C4.897 13.261 1.8 18.84 1.8 20.8c0 4.221 3.703 6.5 8.8 6.5 5.097 0 8.8-2.279 8.8-6.48-.089-2.138-2.818-7.486-4.982-9.882-1.648.27-3.398.308-5.018.262z"/><path fill-rule="nonzero" d="M7.376 8.482c.27.07.273.07.612.136a16.56 16.56 0 002.336.283c.95.045 1.933-.032 2.876-.188.453-.074.79-.149.973-.197l.254.968a14.977 14.977 0 01-1.064.216 14.789 14.789 0 01-3.087.2 17.5 17.5 0 01-2.478-.3c-.36-.07-.437-.08-.726-.155l.304-.963z"/><path d="M12.3 19c-.4-.2-.9-.4-1.5-.5-1-.2-1.5-.5-1.5-.9 0-.2.083-.4.2-.5.117-.1.4-.2.7-.2.133 0 .333.033.6.1l.4.2c.2.133.333.233.4.3l.4.4h1.6v-2.3h-1.5v.3l-.8-.3v-.8H10v.7c-.3 0-.557.142-.814.275a3.35 3.35 0 00-.686.525c-.2.2-.343.4-.443.7-.1.2-.157.5-.157.8 0 .2 0 .4.1.7.1.2.2.5.4.7.2.2.5.5.9.7.4.2.9.3 1.5.4.204.03.401.072.5.1.2.057.3.1.5.2s.3.2.4.3c.1.1.1.2.1.4s-.1.3-.3.4c-.2.1-.44.157-.7.2a3.228 3.228 0 01-.6 0c-.27-.059-.349-.121-.536-.227-.37-.273-.235-.173-.364-.273-.13-.1-.3-.2-.4-.4H7.9v2.3h1.5V23a.67.67 0 01.262.075L10 23.2v.9h1.3v-.7c.3 0 .649-.1.9-.2s.5-.3.7-.5c.2-.2.338-.35.5-.7.162-.35.2-.5.2-.8 0-.2 0-.39-.042-.6-.109-.422-.158-.6-.358-.9-.2-.3-.5-.5-.9-.7z"/></g></symbol><symbol viewBox="0 0 725 324" id="icon-trophy-coins" xmlns="http://www.w3.org/2000/svg"><g fill-rule="evenodd"><path d="M148.4 241.6V223c-14-.8-27.5-4.6-35.3-8.6l6.6-27.5c9 4.4 21.3 8.8 35.1 8.8 10 0 17.2-2.8 17.2-9.2 0-6.2-5.8-10-20.7-14.6-21.7-7-37.1-17.2-37.1-37.3 0-18.2 12.6-32.5 35.1-37.1V79.3H172v16.8c13.8.6 23.1 3.4 30.3 6.4l-6.4 26.5c-5.4-2.2-15-6.8-30.1-6.8-11.8 0-15.4 4.2-15.4 8.6 0 5 6.8 8.8 23.5 14.8 25.1 8.2 34.3 19.5 34.3 37.7 0 18.5-13.2 33.7-37.1 38.1v20.3h-22.7v-.1z"/><path fill-rule="nonzero" d="M161.2 28.3c35.5 0 68.9 13.8 94 38.9 25.1 25.1 38.9 58.5 38.9 94s-13.8 68.9-38.9 94c-25.1 25.1-58.5 38.9-94 38.9s-68.9-13.8-94-38.9c-25.1-25.1-38.9-58.5-38.9-94s13.8-68.9 38.9-94c25.1-25.1 58.5-38.9 94-38.9zm0-28.3C72.2 0 0 72.1 0 161.2s72.2 161.2 161.2 161.2c89 0 161.2-72.2 161.2-161.2C322.4 72.2 250.3 0 161.2 0z"/><path fill-rule="nonzero" d="M362 29.4c35.6 0 69 13.9 94.2 39 25.2 25.2 39 58.6 39 94.2s-13.9 69-39 94.2c-25.2 25.2-58.6 39-94.2 39-12 0-23.9-1.6-35.3-4.7 8.8-11.2 16.5-23.3 22.8-35.9 14.4-28.9 21.7-60.1 21.7-92.6 0-32.5-7.3-63.6-21.7-92.6-6.3-12.6-14-24.7-22.8-35.9 11.5-3.1 23.3-4.7 35.3-4.7zm0-28c-30.5 0-59 8.5-83.3 23.2 19 15.9 34.7 35.9 45.7 58 12.4 25 18.7 52 18.7 80.1 0 28.1-6.3 55.1-18.7 80.1-11 22.1-26.7 42-45.7 58C303 315.5 331.5 324 362 324c89 0 161.2-72.2 161.2-161.2 0-89-72.1-161.4-161.2-161.4z"/><path fill-rule="nonzero" d="M563.8 29.4c35.6 0 69 13.9 94.2 39 25.2 25.2 39 58.6 39 94.2s-13.9 69-39 94.2c-25.2 25.2-58.6 39-94.2 39-12 0-23.9-1.6-35.3-4.7 8.8-11.2 16.5-23.3 22.8-35.9 14.4-28.9 21.7-60.1 21.7-92.6 0-32.5-7.3-63.6-21.7-92.6-6.3-12.6-14-24.7-22.8-35.9 11.4-3.1 23.3-4.7 35.3-4.7zm0-28c-30.5 0-59 8.5-83.3 23.2 19 15.9 34.7 35.9 45.7 58 12.4 25 18.7 52 18.7 80.1 0 28.1-6.3 55.1-18.7 80.1-11 22.1-26.7 42-45.7 58 24.3 14.7 52.8 23.2 83.3 23.2 89 0 161.2-72.2 161.2-161.2 0-89-72.2-161.4-161.2-161.4z"/></g></symbol><symbol viewBox="0 0 58 99" id="icon-trophy-cup" xmlns="http://www.w3.org/2000/svg"><path d="M54.7 41.5h-7.9v-2.6c1.6-.5 2.6-2.3 2.1-4.2-.4-1.5-1.8-2.4-3.2-2.4H12.4c-1.5 0-2.8.9-3.2 2.4-.5 1.9.5 3.6 2.1 4.2v2.6h-8C1.5 41.5 0 43 0 44.9v6.9C0 60 6.4 66.6 14.3 66.7c2.1 3.2 5.3 5.8 8.9 7.1-.5.6-.8 1.4-.8 2.2 0 1.4.8 2.6 2 3.1-1.3 1.2-2 3-2 4.9 0 2 .8 3.8 2.2 5.1v.6c0 1.3-1.1 2.4-2.4 2.4-2.4 0-4.4 2.1-4.4 4.5v1.2c0 .6.5 1.1 1 1.1h20.1c.6 0 1-.5 1-1.1v-1.2c0-2.5-2-4.5-4.4-4.5-1.3 0-2.3-1.1-2.3-2.4v-.6c1.4-1.3 2.2-3.1 2.2-5.1 0-1.9-.8-3.7-2-4.9 1.2-.5 2-1.7 2-3.1 0-.9-.3-1.6-.8-2.2 3.7-1.3 6.8-3.8 8.9-7.1 8.1-.1 14.5-6.8 14.5-14.9v-6.9c0-1.9-1.5-3.4-3.3-3.4zm-42.5-7.1h33.5c.7 0 1.2.5 1.2 1.2s-.5 1.2-1.2 1.2H12.2c-.7 0-1.2-.5-1.2-1.2 0-.6.6-1.2 1.2-1.2zM2.1 51.8v-6.9c0-.7.5-1.2 1.2-1.2h7.9v12.8c0 2.9.6 5.6 1.8 8.1-6.1-.9-10.9-6.3-10.9-12.8zm33.6 42.6c1.3 0 2.4 1 2.4 2.4v.1H20v-.1c0-1.3 1.1-2.4 2.4-2.4 2.4 0 4.4-2.1 4.4-4.5v-.1h4.6v.1c-.1 2.4 1.9 4.5 4.3 4.5zM32 87.6h-6c-1.2-1-1.7-2.6-1.5-4.3.3-1.9 1.7-3.4 3.5-3.8 2.9-.7 5.6 1.6 5.6 4.6-.1 1.4-.6 2.6-1.6 3.5zm.4-12.8c.7 0 1.2.5 1.2 1.2s-.5 1.2-1.2 1.2h-6.7c-.7 0-1.2-.5-1.2-1.2s.5-1.2 1.2-1.2h6.7zm-4.9-2.2c-7.9-.7-14.3-8.4-14.3-16.5v-17h31.4v17.4c.1 9.3-7.7 16.9-17.1 16.1zm28.4-20.8c0 6.5-4.8 11.9-10.9 12.7 1.2-2.4 1.8-5.2 1.8-8.1V43.7h7.9c.7 0 1.2.5 1.2 1.2v6.9z"/><path d="M41.3 48.4c-.6 0-1 .5-1 1.1v6.9c0 3.5-1.5 6.7-4.1 8.9-.4.4-.5 1.1-.1 1.5.2.3.5.4.8.4.2 0 .5-.1.7-.2 3.1-2.6 4.9-6.5 4.9-10.6v-6.9c-.2-.6-.6-1.1-1.2-1.1zm0-6.9c-.6 0-1 .5-1 1.1v2.3c0 .6.5 1.1 1 1.1.6 0 1-.5 1-1.1v-2.3c0-.6-.4-1.1-1-1.1zM31 17.7c-3.3-.7-6.8-.3-7.2 1.7l-.4 1.9c-.4 2 2.8 3.8 6.1 4.4 3.3.7 6.9.3 7.3-1.7l.4-2.2c-.1-1.9-3.1-3.5-6.2-4.1zm-.9 4.6c-3.3-.7-4.9-2.1-4.9-2.5.1-.4 2.1-1.1 5.4-.5 3.3.7 4.9 2.1 4.9 2.5-.1.5-2.1 1.2-5.4.5zM40 9.9c-2-2.8-4.8-5-6.4-3.8l-1.5 1.1c-1.6 1.2-.4 4.7 1.6 7.5s4.9 5 6.5 3.8l1.7-1.3c1.2-1.4 0-4.7-1.9-7.3zm.7 6.2c-.3.3-2.3-.6-4.3-3.5-2-2.8-2.3-5-1.9-5.3.3-.3 2.3.6 4.3 3.5s2.2 5 1.9 5.3zM49 .2L47.1 0c-2-.2-3.3 3.3-3.6 6.8-.2 3.4.5 7 2.5 7.2l2.1.2c1.8-.2 3-3.5 3.2-6.8.4-3.4-.4-7-2.3-7.2zm.8 7.1c-.3 3.5-1.5 5.3-1.9 5.3-.4 0-1.3-2-1.1-5.5.3-3.5 1.5-5.3 1.9-5.3.5 0 1.4 2 1.1 5.5z"/></symbol><symbol viewBox="0 0 325 189" id="icon-trophy-flags" xmlns="http://www.w3.org/2000/svg"><g fill-rule="evenodd"><path fill-rule="nonzero" d="M1 112.8c.2-.1.2-.2.2-.3.2-2 1-3.8 1.8-5.6 3.2-7.8 7.6-14.7 13.2-21 3.3-3.6 6.8-7 10.5-10.2 3.8-3.3 7.8-6.4 11.8-9.5 3.6-2.8 7.3-5.6 10.8-8.6 3.9-3.3 7.6-6.7 11-10.5 6.3-6.9 11.2-14.7 14.4-23.5.2-.4.3-.8.5-1.2.2-.5.5-1 .8-1.5.1-.2.3-.3.5-.5.8-.7 1.8-.8 2.7-.1.3.3.6.6.9 1 1.9 2.5 3.8 4.9 5.7 7.4 13 17 26 34 39 50.9 2.1 2.8 4.2 5.5 6.3 8.3 1 1.3 1.8 2.8 2.1 4.4.4 1.8.3 3.5-.1 5.3-.2.8-.5 1.6-.8 2.3-3.1 8.1-7.6 15.3-13.3 21.8-3.2 3.7-6.7 7-10.4 10.2-3.7 3.2-7.5 6.2-11.3 9.1-3.8 3-7.7 5.9-11.4 9-3.8 3.2-7.5 6.6-10.9 10.2-5.4 5.9-9.9 12.3-13.2 19.6-.8 1.7-1.5 3.4-2.1 5.1-.2.6-.5 1.1-.8 1.6-.3.6-.8 1-1.4 1.3-.1 0-.1.1-.2.1H56c-1.3-1-1.1-.9-2-2-10-13.1-20-26.1-30-39.2L3.6 120c-.3-.4-.6-.9-1-1.3-.8-1.2-1.4-2.6-1.6-4.1 0-.2-.1-.4-.3-.6.3-.2.3-.7.3-1.2zm38.3-2.9c-.8-.9-1.4-1.8-2.1-2.7-.7-.9-1.3-1.7-2-2.6-.7-.9-1.3-1.8-2-2.6-.7-.9-1.3-1.8-2-2.6-.7-.9-1.3-1.8-2-2.6-.7-.9-1.3-1.7-2-2.6-.7-.9-1.3-1.8-2-2.6-1.5 1.2-6.6 7.6-9.1 11.3-2.1 3.2-4.8 8.2-5.1 9.4.5.8 13.6 17.9 14.1 18.3.1-.2.2-.3.3-.4.4-.7.7-1.4 1.1-2.1 3.3-6.4 7.5-12.3 12.4-17.6.1-.2.3-.4.5-.4.1.2.3.3.4.5l2.7 3.6c4.1 5.4 8.2 10.8 12.4 16.1.2.2.3.4.5.6.2-.1.3-.3.4-.4 3.3-3.1 6.7-6.1 10.2-8.9 2.8-2.2 5.6-4.3 8.3-6.4.2-.1.4-.2.5-.5 0-.1-.1-.1-.1-.2-5.3-6.9-10.5-13.7-15.8-20.6h-.2c-.8.6-1.7 1.2-2.5 1.9-.8.6-1.7 1.2-2.5 1.9-.8.6-1.7 1.3-2.5 1.9-.8.6-1.6 1.3-2.4 1.9-.8.7-1.6 1.3-2.5 2l-2.4 2.1c-.8.7-1.5 1.4-2.3 2.1-.7.7-1.5 1.4-2.3 2.2zm55.2-11.1c1.8-1.4 7.1-7.9 9.7-11.9 2.1-3.1 5-8.5 5.4-9.8-.2-.2-.3-.4-.5-.6-2.2-2.8-4.3-5.6-6.5-8.5-2.9-3.8-5.7-7.5-8.6-11.3-.1-.2-.2-.4-.5-.4l-.1.1c-.1.2-.2.4-.3.5-1.8 3.7-3.9 7.3-6.3 10.7-2.4 3.4-5 6.6-7.9 9.6-.2.2-.4.4-.5.6 5.5 7.1 10.8 14.1 16.1 21zm-19.4 15.9c.2.3.4.5.5.7 1.7 2.3 3.5 4.5 5.2 6.8 2.7 3.5 5.4 7 8 10.5.2.2.3.5.5.6.2-.1.3-.2.4-.3 3.4-2.5 6.7-5 9.9-7.6 2.9-2.3 5.8-4.8 8.5-7.3.2-.2.4-.3.5-.6-.2-.2-.3-.4-.5-.7l-6.9-9c-2.2-2.8-4.3-5.6-6.5-8.5-.1-.2-.2-.4-.5-.5-3 2.8-6.2 5.5-9.4 8.1-3 2.7-6.3 5.2-9.7 7.8zm3.4-36.8c-.3-.3-.4-.6-.6-.8-2-2.6-4-5.3-6.1-7.9l-6.9-9c-.2-.2-.3-.5-.6-.6-.1.1-.3.2-.4.3-3.4 3.2-7 6.2-10.7 9.1-2.6 2-5.2 4-7.8 5.9-.2.2-.5.3-.6.6 4.7 6.1 9.3 12.1 13.9 18.2 0 .1.1.1.2.1 1.6-1 10.7-8 14.1-10.9 1.9-1.6 3.7-3.3 5.5-5zm-23.2 53.2c-1.7 1.4-7 8.1-9.5 12.1-2 3.1-4.3 7.4-4.5 8.5 4.7 6.1 9.4 12.3 14.1 18.4 0 .1.1.1.2.2.5-.9.9-1.9 1.4-2.8l1.5-2.7c.5-.9 1.1-1.8 1.6-2.7.5-.9 1.1-1.7 1.7-2.6.6-.9 1.2-1.7 1.8-2.5.6-.8 1.3-1.6 1.9-2.4.7-.8 1.4-1.6 2-2.4.7-.8 1.4-1.5 2.1-2.3-4.7-6.2-9.4-12.3-14.1-18.4-.1-.3-.2-.4-.2-.4zm213.4 57.1s0-.1-.1-.1c-.8-.4-1.3-1.1-1.7-1.8-.2-.3-.3-.7-.4-1-3.1-8.6-7.8-16.3-13.8-23.2-3.3-3.8-6.9-7.2-10.7-10.5-3.6-3.1-7.4-6.1-11.2-9-3.5-2.7-7.1-5.5-10.6-8.3-4-3.3-7.9-6.8-11.5-10.7-5.4-5.8-9.8-12.2-13.1-19.5-.7-1.5-1.3-3.1-2-4.7-.6-1.4-.8-2.8-.9-4.3-.1-2.3.5-4.3 1.8-6.2l.9-1.2c15.1-19.7 30.2-39.4 45.2-59.1 1.8-2.4 3.6-4.7 5.4-7.1.2-.3.4-.5.6-.7.3-.2.5-.4.8-.6.6-.3 1.2-.3 1.8.1.4.2.7.5.9.8.4.5.7 1.2 1 1.8 3.4 9.5 8.7 17.9 15.6 25.2 3.1 3.3 6.5 6.4 10 9.4 3.8 3.2 7.7 6.2 11.6 9.2 3.7 2.9 7.5 5.8 11.1 8.9 3.8 3.2 7.5 6.7 10.8 10.4 4.7 5.3 8.6 11.1 11.6 17.5.9 1.9 1.8 3.9 2.5 5.9.3.7.5 1.4.6 2.2 0 .1.1.2.1.3v3.5c0 .1-.1.2-.1.3-.1 1.1-.6 2-1.1 2.9-.4.6-.8 1.3-1.3 1.9-15.1 19.7-30.1 39.4-45.2 59-1.9 2.5-3.8 4.9-5.7 7.4-.4.6-.9 1.1-1.5 1.4l-.1.1c-.5-.2-.9-.2-1.3-.2zM247.8 77.9c-.6-.6-1.1-1.1-1.6-1.7-.5-.5-1-1.1-1.4-1.6-.5-.6-1-1.1-1.4-1.7-.5-.6-.9-1.1-1.4-1.7-.4-.6-.9-1.1-1.3-1.7-.4-.6-.9-1.2-1.3-1.8l-1.2-1.8-1.2-1.8c-.4-.6-.8-1.3-1.1-1.9-.4-.6-.7-1.3-1.1-1.9-.3-.6-.7-1.3-1-1.9-.3-.6-.6-1.3-1-1.9h-.1c-.1.1-.2.3-.3.4-5.2 6.8-10.4 13.5-15.5 20.3v.2c.6 1.3 1.3 2.6 2 3.9.7 1.3 1.4 2.5 2.2 3.8.8 1.3 1.6 2.5 2.4 3.7.8 1.2 1.7 2.4 2.7 3.6.9 1.1 1.8 2.3 2.8 3.3 1 1.1 2 2.2 3 3.2v.1c-4.7 6.1-9.3 12.2-14 18.3-.1.1-.1.2-.2.2v.2c.2.2.4.4.7.6 5.8 5.4 12.1 10.2 18.5 14.9.1.1.2.1.3.2.2-.2.4-.4.5-.7 2.2-2.8 4.3-5.7 6.5-8.5 2.3-3 4.5-5.9 6.8-8.9.2-.2.4-.4.4-.7-.2-.2-.5-.4-.7-.5-3.7-2.8-7.4-5.5-11-8.5-2.4-2-4.8-4.1-7.1-6.2-.2-.2-.4-.3-.5-.6.1-.2.2-.3.4-.5l9.6-12.6c1.9-2.4 3.7-4.9 5.6-7.3.1-.2.2-.4.5-.5.5.5 1.1 1 1.6 1.5 5.6 5.1 11.6 9.6 17.7 14.1.1.1.2.1.3.2.2-.2.3-.4.5-.6 2.1-2.8 4.3-5.6 6.4-8.4 2.2-2.9 4.5-5.9 6.7-8.8.1-.2.4-.3.4-.7-1.1-.8-2.2-1.7-3.4-2.5-1.1-.8-2.2-1.7-3.3-2.5-1.1-.9-2.2-1.7-3.3-2.6l-3.3-2.7c-1.1-.9-2.1-1.8-3.1-2.7-1.1-.9-2.1-1.9-3.2-2.8-.6.7-1.1 1.4-1.6 2.1-.5.7-1 1.4-1.6 2.1-.5.7-1 1.3-1.5 2s-1 1.4-1.6 2.1c-.5.7-1 1.4-1.6 2.1-.5.7-1 1.4-1.6 2.1-.5.7-1 1.3-1.5 2s-1 1.4-1.6 2.1c-.8.5-1.3 1.2-1.9 1.9zm39.2 32c-2.1-2-4.1-3.9-6.3-5.7-2.2-1.8-4.3-3.6-6.5-5.3-4.1-3.2-6.2-4.7-6.8-5-.2.2-.3.4-.5.6-2 2.6-4 5.3-6.1 7.9-3 3.9-6 7.8-8.9 11.7-.2.2-.4.4-.4.7.7.5 1.3 1 2 1.5s1.3 1 2 1.5 1.3 1 2 1.5 1.3 1 2 1.5 1.3 1 2 1.6c.7.5 1.3 1.1 2 1.6.6.5 1.3 1.1 1.9 1.6.6.5 1.3 1.1 1.9 1.7.6.6 1.2 1.1 1.9 1.7.6.6 1.2 1.2 1.9 1.7.5-.6.9-1.2 1.4-1.8.4-.6.9-1.1 1.3-1.7.4-.6.9-1.2 1.3-1.8.4-.6.9-1.2 1.3-1.8.4-.6.9-1.1 1.3-1.7.4-.6.9-1.2 1.3-1.8.4-.6.9-1.2 1.3-1.8.4-.6.9-1.1 1.3-1.7.4-.6.9-1.2 1.3-1.8.4-.6.9-1.2 1.3-1.8.4-.6.9-1.1 1.3-1.7.6-.2 1-.8 1.5-1.4.1.1.1.1.1.2l.3.3c3.2 3.5 6.2 7.2 8.8 11.2 1.7 2.7 3.3 5.5 4.7 8.4.1.2.1.4.3.5.1 0 .1-.1.1-.1 4.5-5.9 9.1-11.9 13.6-17.8.1-.1.2-.2.3-.4v-.2c-1.9-4.4-5.9-10.8-9.8-15.7-2-2.4-3.8-4.5-4.4-4.9-.9 1.2-1.9 2.5-2.8 3.7-.9 1.2-1.9 2.4-2.8 3.6-.9 1.2-1.9 2.5-2.8 3.7-.9 1.2-1.9 2.4-2.8 3.6-.8 1.4-1.8 2.6-2.8 3.9zm-30.2 39.8c.2.2.4.5.6.7 4.1 4.5 7.7 9.3 10.7 14.6.9 1.6 1.7 3.2 2.5 4.8.1.1.1.3.3.4.5-.5 13.9-18.1 14.2-18.6-3.6-7.6-8.3-14.4-14-20.5-.1.1-.2.1-.2.2-4.7 6.1-9.4 12.2-14.1 18.4z"/><path d="M86.2 1c.1.1.2.1.3.2 1.3.3 2.4 1.1 3.2 2.1 1 1.3 2.1 2.6 3.1 3.9 14.7 18.5 29.3 37.1 44 55.6 8.6 10.9 17.2 21.8 25.9 32.7.2.2.3.4.5.6.3-.1.4-.3.5-.5 2.5-3.1 5-6.3 7.4-9.4 13.7-17.3 27.4-34.6 41.1-52 8.1-10.2 16.1-20.4 24.2-30.6.4-.5.8-1 1.3-1.4.6-.5 1.3-.8 2-1 .2 0 .4-.1.6-.2h1c.1.1.3.1.4.2 1.3.3 2.3 1 3.2 2.1.8 1 1.3 2.1 1.6 3.4.3 1.6.3 3.2-.2 4.8-.3 1.1-.8 2.1-1.6 3-4.2 5.3-8.4 10.7-12.7 16-16.1 20.4-32.2 40.8-48.4 61.2-3.8 4.8-7.6 9.7-11.5 14.5-.2.2-.4.5-.5.7.1.3.3.5.5.7 4 5 8 10.1 12 15.1 6.2 7.9 12.4 15.8 18.7 23.6 2.3 2.8 2.6 7 1.1 10-.4.9-1 1.6-1.7 2.3-1.9 1.6-4.3 1.6-6.2.2-.5-.4-.9-.8-1.3-1.3-3.5-4.4-7-8.9-10.5-13.3-6.8-8.6-13.5-17.1-20.3-25.7-.2-.2-.4-.5-.6-.7-.3.2-.4.4-.6.6-2.6 3.3-5.3 6.6-7.9 10-7.7 9.7-15.3 19.4-23 29-.4.5-.8.9-1.2 1.3-1.9 1.6-4.5 1.6-6.4-.1-1.1-.9-1.8-2.1-2.2-3.5-.7-2.1-.6-4.2.2-6.3.3-.9.8-1.6 1.4-2.4 3.5-4.4 7-8.9 10.5-13.3 6.8-8.5 13.5-17.1 20.3-25.6.1-.2.3-.4.4-.5 0-.3-.2-.4-.4-.6-2.8-3.6-5.7-7.2-8.5-10.7-18.2-23-36.3-45.9-54.5-68.9-3.2-4.1-6.4-8.1-9.6-12.2-2.2-2.6-2.7-6.5-1.4-9.6.3-.7.7-1.4 1.2-2 .8-.9 1.8-1.6 3-1.9.1 0 .3-.1.4-.2.4.1.8.1 1.2.1z"/></g></symbol><symbol viewBox="0 0 93 80" id="icon-trophy-laurus" xmlns="http://www.w3.org/2000/svg"><path d="M72.696 67.84a11.781 11.781 0 00-10.684-1.611 11.782 11.782 0 00-7.515 7.762c1.518 1.228 5.78 3.268 10.683 1.61 4.903-1.656 7.053-5.864 7.516-7.761zm12.394-12.2a11.782 11.782 0 00-10.52-2.46 11.781 11.781 0 00-8.113 7.135c1.415 1.345 5.5 3.72 10.52 2.46 5.02-1.259 7.5-5.281 8.113-7.135zm3.577-17.534a11.781 11.781 0 00-10.73 1.267 11.782 11.782 0 00-5.198 9.472c1.788.782 6.438 1.625 10.73-1.268 4.29-2.893 5.253-7.52 5.198-9.471zm-5.39-20.382a11.782 11.782 0 00-7.974 7.29 11.782 11.782 0 001.304 10.725c1.91-.407 6.177-2.436 7.974-7.29 1.797-4.853-.12-9.172-1.304-10.725zM67.774 4.932a11.781 11.781 0 00-3.048 10.366 11.781 11.781 0 006.668 8.5c1.422-1.337 4.023-5.282 3.048-10.365-.975-5.082-4.852-7.785-6.668-8.5zm-46.037 63.23a11.781 11.781 0 0110.683-1.61 11.782 11.782 0 017.516 7.762c-1.518 1.227-5.78 3.268-10.684 1.61-4.902-1.657-7.053-5.865-7.515-7.762zM9.343 55.963a11.782 11.782 0 0110.52-2.461 11.782 11.782 0 018.113 7.135c-1.415 1.345-5.5 3.72-10.52 2.461-5.02-1.26-7.5-5.282-8.113-7.135zM5.765 38.428a11.782 11.782 0 0110.73 1.268 11.781 11.781 0 015.2 9.471c-1.79.783-6.44 1.626-10.73-1.267-4.292-2.893-5.255-7.52-5.2-9.472zm5.39-20.381a11.781 11.781 0 017.975 7.29 11.782 11.782 0 01-1.304 10.725c-1.91-.408-6.178-2.437-7.975-7.29-1.796-4.853.121-9.173 1.304-10.725zM26.659 5.255a11.781 11.781 0 013.048 10.365 11.781 11.781 0 01-6.668 8.501c-1.423-1.337-4.024-5.283-3.049-10.365.976-5.083 4.852-7.785 6.669-8.501zM40.234 21.5c-1.876 1.223-4.802 2.208-6.03 2.547v5.944h8.71V50.88l-6.533 4.245v4.755h24.46v-4.755l-7.372-4.245V18.782h-8.712a76.767 76.767 0 00-4.523 2.717z" fill="none" stroke="#fff"/><path d="M70.696 64.84a11.781 11.781 0 00-10.684-1.611 11.782 11.782 0 00-7.515 7.762c1.518 1.228 5.78 3.268 10.683 1.61 4.903-1.656 7.053-5.864 7.516-7.761zm12.394-12.2a11.782 11.782 0 00-10.52-2.46 11.781 11.781 0 00-8.113 7.135c1.415 1.345 5.5 3.72 10.52 2.46 5.02-1.259 7.5-5.281 8.113-7.135zm3.577-17.534a11.781 11.781 0 00-10.73 1.267 11.782 11.782 0 00-5.198 9.472c1.788.782 6.438 1.625 10.73-1.268 4.29-2.893 5.253-7.52 5.198-9.471zm-5.39-20.382a11.782 11.782 0 00-7.974 7.29 11.782 11.782 0 001.304 10.725c1.91-.407 6.177-2.436 7.974-7.29 1.797-4.853-.12-9.172-1.304-10.725zM65.774 1.932a11.781 11.781 0 00-3.048 10.366 11.781 11.781 0 006.668 8.5c1.422-1.337 4.023-5.282 3.048-10.365-.975-5.082-4.852-7.785-6.668-8.5z" stroke="#222"/><path d="M53 70.97L65.5 67M65 56.935L79 54m-8.573-7.834L82 38m-7.148-5.176L79 21m-8.767-.137L67 9" stroke="#222" stroke-linecap="round"/><path d="M19.737 65.162a11.781 11.781 0 0110.683-1.61 11.782 11.782 0 017.516 7.762c-1.518 1.227-5.78 3.268-10.684 1.61-4.902-1.657-7.053-5.865-7.515-7.762zM7.343 52.963a11.782 11.782 0 0110.52-2.461 11.782 11.782 0 018.113 7.135c-1.415 1.345-5.5 3.72-10.52 2.461-5.02-1.26-7.5-5.282-8.113-7.135zM3.765 35.428a11.782 11.782 0 0110.73 1.268 11.781 11.781 0 015.2 9.471c-1.79.783-6.44 1.626-10.73-1.267-4.292-2.893-5.255-7.52-5.2-9.472zm5.39-20.382a11.781 11.781 0 017.975 7.29 11.782 11.782 0 01-1.304 10.726c-1.91-.408-6.178-2.437-7.975-7.29-1.796-4.853.121-9.173 1.304-10.725zM24.659 2.255a11.781 11.781 0 013.048 10.365 11.781 11.781 0 01-6.668 8.501c-1.423-1.337-4.024-5.283-3.049-10.365.976-5.083 4.852-7.785 6.669-8.501zM38.234 18.5c-1.876 1.223-4.802 2.208-6.03 2.547v5.944h8.71V47.88l-6.533 4.245v4.755h24.46v-4.755l-7.372-4.245V15.782h-8.712a76.767 76.767 0 00-4.523 2.717z" stroke="#222"/></symbol><symbol viewBox="0 0 79 81" id="icon-trophy-speedometer1" xmlns="http://www.w3.org/2000/svg"><circle cx="40" cy="42" r="38" stroke="#fff" fill="none"/><path fill-rule="evenodd" clip-rule="evenodd" d="M38.95 15.73a22.598 22.598 0 015.165 1.838l2.81-8.274A28.71 28.71 0 0038.951 8v7.73zm-1.996-7.703c-2.919.14-5.723.715-8.35 1.661l1.75 5.778a22.936 22.936 0 016.6-.089v-7.35zm-8.565 7.841l-1.645-5.435a28.748 28.748 0 00-6.557 4.024l2.697 3.596a22.618 22.618 0 015.505-2.185zm-13.338 9.399l-2.434-1.357a28.568 28.568 0 00-1.461 3.48l2.227.809a22.669 22.669 0 011.668-2.932zm1.195-1.62a22.887 22.887 0 014.932-4.541l-2.497-3.33a28.88 28.88 0 00-5.11 6.38l2.675 1.491zM48.81 9.955l-2.921 8.6a22.881 22.881 0 017.077 6.86l8.618-5.611A28.84 28.84 0 0048.81 9.955zm13.895 11.501l-8.712 5.674a22.66 22.66 0 012.728 10.814c0 1.972-.251 3.886-.723 5.711L65.221 47a28.686 28.686 0 001.882-10.254 28.62 28.62 0 00-4.397-15.29z"/><path fill-rule="evenodd" clip-rule="evenodd" d="M42.75 40.866a5.23 5.23 0 11-.404-5.864l23.074-.685.117.578-22.788 5.97z"/><path d="M34.865 75.841c-8.933-.818-16.912-4.446-23.273-10.582C5.315 59.204 1.372 51.207.27 42.298c-.193-1.571-.22-6.586-.043-8.195.578-5.244 2.24-10.421 4.78-14.894.76-1.336 2.324-3.63 3.391-4.97 1.366-1.715 4.08-4.439 5.747-5.766 3.634-2.896 7.559-5.046 11.796-6.463 9.639-3.225 20.22-2.448 29.25 2.147a38.093 38.093 0 0114.444 12.871c3.82 5.749 6.031 12.574 6.273 19.368.137 3.86-.185 7.115-1.058 10.664a37.789 37.789 0 01-10.393 18.15c-6.02 5.857-13.672 9.486-22.17 10.516-1.36.165-6.08.238-7.422.115zm5.32-4.887c9.372-.68 17.762-5.055 23.583-12.297 6.926-8.615 9.065-20.249 5.663-30.805-1.212-3.764-3.197-7.429-5.744-10.61-1.192-1.487-3.447-3.741-4.926-4.922-4.95-3.954-10.338-6.243-16.732-7.106-2.054-.278-6.01-.278-8.056-.001-6.372.863-11.836 3.182-16.741 7.107-2.172 1.738-4.669 4.414-6.291 6.742a33.037 33.037 0 00-4.205 29.577c3.287 9.709 10.95 17.345 20.724 20.652 4.094 1.385 8.546 1.967 12.725 1.663z"/><path d="M36.881 47.905c-2.434-.365-4.334-1.287-5.915-2.867-3.89-3.89-3.894-10.182-.007-14.069a9.974 9.974 0 019.852-2.519 9.991 9.991 0 015.12 3.535c.308.41.56.768.56.797 0 .028-.731.078-1.625.11l-1.625.06-.535-.43c-1.593-1.284-3.88-1.82-5.942-1.393-2.068.43-3.955 1.826-4.903 3.63-1.11 2.112-1.182 4.39-.206 6.496.996 2.15 2.836 3.607 5.182 4.106.752.16 2.512.104 3.262-.104 1.25-.347 2.381-1.02 3.344-1.99l.637-.64 1.527-.409c.84-.224 1.544-.395 1.564-.379.02.017-.116.328-.3.693-1.26 2.48-3.74 4.47-6.386 5.117-1.112.272-2.732.387-3.604.256z"/></symbol><symbol viewBox="0 0 79 85" id="icon-trophy-speedometer2" xmlns="http://www.w3.org/2000/svg"><g fill="none"><circle cx="40" cy="41" r="38" stroke="#fff"/><circle cx="38" cy="38" r="35.5"/><circle cx="38" cy="38" r="7.5"/></g><path fill-rule="evenodd" clip-rule="evenodd" d="M38.95 15.73a22.598 22.598 0 015.165 1.838l2.81-8.274A28.71 28.71 0 0038.951 8v7.73zm-1.996-7.703c-2.919.14-5.723.715-8.35 1.661l1.75 5.778a22.936 22.936 0 016.6-.089v-7.35zm-8.565 7.841l-1.645-5.435a28.748 28.748 0 00-6.557 4.024l2.697 3.596a22.618 22.618 0 015.505-2.185zm-13.338 9.399l-2.434-1.357a28.568 28.568 0 00-1.461 3.48l2.227.809a22.669 22.669 0 011.668-2.932zm1.195-1.62a22.887 22.887 0 014.932-4.541l-2.497-3.33a28.88 28.88 0 00-5.11 6.38l2.675 1.491zM48.81 9.955l-2.921 8.6a22.881 22.881 0 017.077 6.86l8.618-5.611A28.84 28.84 0 0048.81 9.955zm13.895 11.501l-8.712 5.674a22.66 22.66 0 012.728 10.814c0 1.972-.251 3.886-.723 5.711L65.221 47a28.686 28.686 0 001.882-10.254 28.62 28.62 0 00-4.397-15.29z"/><path fill-rule="evenodd" clip-rule="evenodd" d="M42.75 40.866a5.23 5.23 0 11-.404-5.864l23.074-.685.117.578-22.788 5.97z" stroke="#222"/><path d="M5 58h66l-2 24H5V58z" fill="#222"/><path d="M16.26 81L12.4 67.412h-.116c.181 2.314.271 4.112.271 5.394V81H8.04V62.133h6.788l3.936 13.395h.103l3.858-13.395h6.801V81h-4.684v-8.272c0-.43.004-.907.013-1.432.017-.525.077-1.811.18-3.859h-.116L21.111 81H16.26zm28.905 0l-.929-3.536h-6.13L37.153 81h-5.6l6.154-18.944h6.801L50.74 81h-5.575zm-1.987-7.717l-.813-3.097a133.12 133.12 0 01-.697-2.671 46.268 46.268 0 01-.529-2.349 48.637 48.637 0 01-.464 2.168c-.224 1.007-.727 2.99-1.51 5.95h4.013zM69.788 81H63.89l-3.678-5.897L56.573 81h-5.768l6.258-9.653-5.884-9.213h5.652l3.407 5.832 3.278-5.832h5.82l-5.975 9.613L69.787 81z"/><path fill="none" d="M72.5 64.5h4l-6.5 10 6.5 10h-14l-2-2.5-2 2.5H43L41 82l-2 2.5H13" stroke="#fff"/><path d="M4.284 55.25A41.578 41.578 0 01.86 45.64c-.788-3.526-.788-11.763 0-15.288 1.608-7.193 4.778-13.228 9.594-18.267 3.608-3.774 6.979-6.24 11.366-8.314C33.973-1.975 47.75-.922 59.256 6.632c2.974 1.953 8.093 7.094 10.153 10.198 4.302 6.48 6.401 13.42 6.401 21.165 0 6.203-1.245 11.513-3.985 17l-1.43 2.865h-5.84l.542-.827c2.498-3.812 3.972-7.06 5.03-11.086.878-3.346 1.111-9.916.48-13.545C68.25 18.842 58.004 8.385 44.23 5.483c-3.001-.632-9.478-.632-12.48 0-10.366 2.184-18.653 8.468-23.289 17.66-4.64 9.202-4.64 20.503 0 29.706.624 1.236 1.458 2.727 1.854 3.311.396.585.804 1.207.906 1.382.144.247-.467.318-2.722.318H5.59z"/><path d="M35.728 47.66c-2.823-.708-5.364-2.812-6.713-5.559-.632-1.287-.703-1.701-.703-4.106 0-2.404.071-2.818.703-4.105 1.095-2.23 2.502-3.646 4.696-4.73 1.795-.888 2.087-.954 4.262-.961 2.196-.008 2.451.049 4.28.952 2.042 1.01 3.63 2.514 4.55 4.314.266.52.483.992.483 1.05 0 .057-1.028.184-2.285.283-2.19.17-2.32.151-3.133-.469-2-1.526-4.133-1.827-6.037-.854-2.26 1.154-3.328 3.575-2.688 6.095.418 1.645 1.236 2.633 2.825 3.41 2.206 1.08 4.338.658 6.242-1.234.673-.668 1.35-.994 2.942-1.418 2.722-.724 2.653-.736 2.34.405-1.077 3.916-4.765 6.853-8.883 7.074-1.04.056-2.337-.01-2.88-.146z"/></symbol><symbol viewBox="0 0 79 81" id="icon-trophy-speedometer3" xmlns="http://www.w3.org/2000/svg"><g fill="none"><circle cx="40" cy="42" r="38" stroke="#fff"/><circle cx="38" cy="38" r="35.5"/></g><path fill-rule="evenodd" clip-rule="evenodd" d="M38.795 16.73a22.599 22.599 0 015.165 1.838l2.81-8.274A28.712 28.712 0 0038.795 9v7.73zm-1.997-7.703a28.64 28.64 0 00-8.35 1.661l1.75 5.778a22.934 22.934 0 016.6-.089v-7.35zm-8.565 7.841l-1.645-5.435a28.75 28.75 0 00-6.556 4.024l2.697 3.596a22.616 22.616 0 015.505-2.185zm-13.338 9.399l-2.434-1.357A28.584 28.584 0 0011 28.39l2.227.809a22.669 22.669 0 011.668-2.932zm1.195-1.62a22.89 22.89 0 014.933-4.541l-2.498-3.33a28.88 28.88 0 00-5.11 6.38l2.675 1.491zm32.564-13.692l-2.92 8.6a22.882 22.882 0 017.076 6.86l8.618-5.611a28.84 28.84 0 00-12.774-9.849zM62.55 22.456l-8.713 5.674a22.66 22.66 0 012.728 10.814c0 1.972-.251 3.886-.723 5.711L65.065 48a28.686 28.686 0 001.882-10.254 28.62 28.62 0 00-4.397-15.29z"/><path d="M22.818 42.27a1.12 1.12 0 01-.349-.356c-.125-.222-.128-.292-.128-3.023v-2.797l-2.866-.016c-2.759-.017-2.873-.022-3.03-.139a.99.99 0 01-.399-.89c.036-.372.185-.585.533-.763.265-.136.285-.137 3.013-.137h2.746l.017-2.847c.016-2.764.02-2.852.142-3.018.146-.202.592-.445.815-.445.277 0 .686.254.833.516.135.242.136.258.137 3.019v2.775h2.749c2.729 0 2.75.001 3.018.137.368.186.558.517.525.915-.028.326-.165.549-.466.754l-.2.136h-5.621l-.018 2.847c-.016 2.78-.02 2.852-.143 3.019-.329.443-.863.571-1.308.313zm-2.362 14.19c-.439-.295-.592-.764-.396-1.213.05-.116 5.297-5.403 12.878-12.978 12.774-12.764 12.793-12.783 13.079-12.824a.997.997 0 011.11 1.196c-.034.166-2.298 2.46-12.823 12.993-7.03 7.035-12.855 12.83-12.946 12.878-.25.133-.663.11-.902-.051zm14.194-5.514c-.453-.262-.62-.914-.34-1.325.074-.11.213-.258.307-.328l.171-.127 7.353-.016 7.353-.016.273.138c.532.268.69.948.33 1.42-.316.413.254.385-7.867.384l-7.36-.001zm0 7.888c-.453-.263-.62-.915-.34-1.326a1.58 1.58 0 01.307-.327l.171-.127 7.383-.015 7.382-.014.243.136c.262.147.516.556.516.833 0 .223-.243.669-.445.816-.17.124-.208.125-7.584.139l-7.413.014z"/><path d="M34.109 75.735c-5.555-.567-11.354-2.551-16.11-5.51-3.537-2.202-7.926-6.228-10.336-9.482C2.673 54.007.13 46.338.13 38.032c0-7.826 2.16-14.919 6.489-21.307 3.813-5.627 9.608-10.522 15.676-13.243C36.939-3.083 53.822.057 65.028 11.431c5.733 5.818 9.325 13.093 10.534 21.34.41 2.79.409 7.684-.001 10.467-1.612 10.942-7.542 20.336-16.65 26.373-7.233 4.794-16.185 7.005-24.802 6.124zm6.295-4.783c4.286-.327 8.31-1.417 12.076-3.27 3.59-1.767 6.194-3.635 9.002-6.456 5.09-5.116 8.252-11.547 9.275-18.864.345-2.475.261-7.748-.16-9.996-1.296-6.913-4.409-12.89-9.22-17.701C51.412 4.7 36.357 2.132 23.668 8.233 8.761 15.4 1.448 32.558 6.59 48.3c.661 2.025 2.068 5.054 3.257 7.012 5.334 8.786 15.07 14.78 25.377 15.624 2.493.204 2.695.204 5.18.015z"/></symbol><symbol viewBox="0 0 131 79" id="icon-trophy-stars" xmlns="http://www.w3.org/2000/svg"><path d="M67.59 5l6.346 19.529H94.47l-16.612 12.07 6.345 19.529-16.612-12.07-16.613 12.07 6.346-19.53L40.71 24.53h20.534L67.591 5zm45.596 29.346l-1.632 14.14 12.943 5.92-13.951 2.818-1.631 14.14-6.991-12.399-13.952 2.818 9.63-10.48-6.99-12.398 12.943 5.921 9.631-10.48zm-91.372 0l1.632 14.14-12.943 5.92 13.951 2.818 1.631 14.14 6.991-12.399 13.952 2.818-9.63-10.48 6.99-12.398-12.943 5.921-9.63-10.48z" fill="none" stroke="#fff" stroke-linecap="round" stroke-linejoin="round"/>><path d="M64.542 1.691a1 1 0 00-1.902 0l-6.121 18.838H36.71a1 1 0 00-.587 1.809L52.148 33.98l-6.12 18.838a1 1 0 001.538 1.119l16.025-11.643 16.024 11.643a1 1 0 001.54-1.119l-6.122-18.837 16.025-11.643a1 1 0 00-.588-1.809H70.663L64.542 1.691z"/><path d="M110.179 31.46a1 1 0 00-1.73-.79l-9.139 9.945-12.282-5.619a1 1 0 00-1.287 1.4l6.634 11.765-9.139 9.945a1 1 0 00.934 1.657l13.24-2.674 6.633 11.765a1.001 1.001 0 001.865-.376l1.548-13.418 13.239-2.674a1 1 0 00.218-1.89l-12.282-5.618 1.548-13.417zm-93.358 0a1 1 0 011.73-.79l9.139 9.945 12.282-5.619a1 1 0 011.287 1.4l-6.634 11.765 9.139 9.945a1 1 0 01-.934 1.657L29.59 57.09l-6.634 11.765a1 1 0 01-1.864-.376L19.544 55.06l-13.24-2.674a1 1 0 01-.217-1.89l12.282-5.618-1.548-13.417z"/></symbol><symbol viewBox="0 0 226 164" id="icon-under" xmlns="http://www.w3.org/2000/svg"><g fill="none"><path fill="#EA417E" d="M196.98 53.69c-2.2 0-4.34.29-6.42.78-7.24-20.16-22.21-36.64-41.32-45.86a78.54 78.54 0 00-14.97-5.47c-2.59-.67-5.24-1.21-7.95-1.63-4.03-.62-8.17-.93-12.4-.93s-8.34.31-12.4.93c-2.71.42-5.36.95-7.95 1.63a77.7 77.7 0 00-14.94 5.47c-19.36 9.3-34.41 26.04-41.57 46.5-2.73-.87-5.61-1.41-8.65-1.41C12.79 53.7.14 66.36.14 82c0 15.62 12.66 28.27 28.27 28.27 3.04 0 5.92-.51 8.65-1.38l.04-.02c12.04 31.72 42.71 54.37 77.9 54.43 2.34 0 4.65-.1 6.94-.32.12 0 .23-.01.35-.03.11-.01.23-.01.34-.03.11-.01.23-.02.34-.04 30.93-3.44 56.9-24.58 67.58-53.38 2.09.51 4.23.76 6.43.76 15.65 0 28.3-12.66 28.3-28.27 0-15.65-12.66-28.3-28.3-28.3zm-12.83 54.49c-5.71 9.92-14.64 16.94-25.15 19.75l-.3.08-.06.31c-2.8 14.87-18.14 26.71-37.3 28.79-1.97.22-4.02.33-6.09.33-5.93 0-11.61-.91-16.79-2.57-13.67-4.36-23.92-13.95-26.46-25.92l-.07-.33-.33-.06c-9.98-1.84-19.02-7.69-25.25-16.1-.05-.06-.1-.13-.15-.2a43.476 43.476 0 01-3.84-6.29c-3.15-6.25-4.82-13.37-4.82-20.6 0-24.2 18.42-43.89 41.07-43.89 14.19 0 27.19 7.74 34.8 20.69l.43.74.43-.74c7.6-12.95 20.61-20.69 34.8-20.69 22.65 0 41.07 19.69 41.07 43.89 0 8.03-2.07 15.92-5.99 22.81z"/><path fill="#EA417E" d="M85.33 94.21c-5.76 0-10.48-4.71-10.51-10.5 0-8 7.7-10.48 10.51-10.48 5.79 0 10.51 4.7 10.51 10.48-.01 5.79-4.72 10.5-10.51 10.5z"/><path fill="#F6EC13" d="M94.65 81.54c-.04-.16-.09-.32-.14-.47-.05-.16-.1-.31-.16-.47-.06-.15-.12-.31-.18-.46-.07-.15-.13-.3-.21-.44-.07-.15-.15-.29-.23-.43-.08-.14-.16-.28-.25-.42-.09-.14-.18-.27-.27-.4-.09-.13-.19-.26-.29-.39-.1-.13-.2-.25-.31-.37-.11-.12-.22-.24-.33-.35-.11-.12-.23-.23-.35-.34-.12-.11-.24-.21-.36-.32-.12-.1-.25-.2-.38-.3-.13-.1-.26-.19-.39-.28-.13-.09-.27-.17-.41-.25-.14-.08-.28-.16-.42-.23-.14-.07-.28-.14-.43-.21-.14-.07-.29-.13-.44-.19-.15-.06-.3-.11-.45-.16-.15-.05-.3-.1-.45-.14-.15-.04-.31-.08-.46-.11l-.46-.09c-.15-.03-.31-.05-.47-.07-.16-.02-.31-.03-.47-.04-.16-.01-.31-.01-.47-.02-.16 0-.31 0-.47.01l-.47.03c-.15.01-.31.03-.46.06-.15.02-.31.05-.46.08-.15.03-.3.07-.45.1-.15.04-.3.08-.45.13-.15.05-.29.1-.44.15-.14.05-.29.11-.43.17a7.99 7.99 0 00-.82.42c-.13.08-.26.15-.39.24-.13.08-.25.17-.38.26-.12.09-.25.18-.36.27-.12.09-.23.19-.35.29-.11.1-.22.2-.33.31-.11.11-.21.22-.31.33-.1.11-.2.23-.3.34-.1.12-.19.24-.28.36-.09.12-.17.24-.26.37-.08.13-.16.25-.24.38-.08.13-.15.26-.22.39s-.13.27-.2.4c-.06.14-.12.27-.17.41l-.15.42c-.05.14-.09.28-.13.42-.04.14-.07.29-.11.43-.03.14-.06.29-.08.43l-.06.44c-.02.15-.03.29-.04.44-.01.15-.01.29-.01.44 0 .15 0 .29.01.44l.03.44a6.29 6.29 0 00.13.86c.03.14.06.28.1.42l.12.42c.04.14.09.27.14.41.05.13.11.27.16.4l.18.39c.06.13.13.25.2.38.07.12.15.25.22.37a7.688 7.688 0 00.5.69 9.06 9.06 0 00.56.63c.1.1.2.2.31.29.1.09.21.19.32.27.11.09.22.17.33.26.11.08.23.16.35.24.12.08.24.15.36.22s.24.14.37.2c.12.06.25.12.38.18s.25.11.38.16.26.1.39.14c.13.04.26.08.4.12.13.04.27.07.4.1s.27.05.4.08c.14.02.27.04.41.05.14.01.27.03.41.03.14.01.27.01.41.01.14 0 .27 0 .41-.01l.41-.03c.13-.01.27-.03.4-.05.13-.02.27-.05.4-.07l.39-.09c.13-.03.26-.07.39-.11.13-.04.25-.09.38-.13.12-.05.25-.1.37-.15.12-.05.24-.11.36-.17.12-.06.24-.12.35-.19.12-.07.23-.14.34-.21.11-.07.22-.15.33-.22.11-.08.21-.16.31-.24.1-.08.2-.17.3-.26.1-.09.19-.18.29-.27a7.68 7.68 0 00.52-.59c.08-.1.16-.2.24-.31a6.1 6.1 0 00.42-.65c.06-.11.13-.23.18-.34.06-.12.11-.23.17-.35l.15-.36c.05-.12.09-.24.13-.36.04-.12.08-.25.11-.37l.09-.37c.03-.12.05-.25.07-.38.02-.13.04-.25.05-.38l.03-.38c.01-.13.01-.25.01-.38s0-.25-.01-.38l-.03-.38a4.69 4.69 0 00-.05-.37c-.02-.12-.04-.25-.07-.37l-.09-.36c-.03-.12-.07-.24-.11-.36-.04-.12-.08-.23-.13-.35-.04-.12-.09-.23-.14-.34-.05-.11-.1-.22-.16-.33-.06-.11-.12-.22-.18-.32-.06-.11-.13-.21-.19-.31l-.21-.3c-.07-.1-.15-.2-.22-.29-.08-.09-.16-.19-.24-.28-.08-.09-.17-.18-.25-.26-.09-.09-.17-.17-.27-.25-.09-.08-.18-.16-.28-.23-.09-.08-.19-.15-.29-.22-.1-.07-.2-.14-.3-.2-.1-.06-.2-.13-.31-.19-.1-.06-.21-.12-.32-.17-.11-.05-.21-.1-.32-.15-.11-.05-.22-.09-.33-.13-.11-.04-.22-.08-.34-.12-.11-.04-.23-.07-.34-.1a4.18 4.18 0 00-.34-.08c-.11-.02-.23-.04-.35-.06-.12-.02-.23-.03-.35-.04-.12-.01-.23-.02-.35-.02-.12-.01-.23-.01-.35-.01-.12 0-.23.01-.35.01l-.35.03c-.11.01-.23.03-.34.05-.11.02-.23.04-.34.07-.11.02-.22.05-.33.08-.11.03-.22.06-.33.1-.11.04-.22.08-.32.12-.11.04-.21.09-.31.13-.1.05-.21.1-.31.15-.1.05-.2.11-.3.16-.1.06-.19.12-.29.18l-.28.19c-.09.07-.18.14-.26.21-.09.07-.17.15-.25.22-.08.08-.16.15-.24.23-.08.08-.15.16-.23.24-.07.08-.14.17-.21.26-.07.09-.13.18-.2.27-.06.09-.13.18-.18.27-.06.09-.12.19-.17.28-.05.1-.1.19-.15.29-.05.1-.09.2-.14.3l-.12.3c-.04.1-.07.2-.1.31l-.09.31c-.03.1-.05.21-.07.32-.02.11-.04.21-.05.32-.02.11-.03.21-.04.32-.01.11-.02.21-.02.32 0 .11-.01.21 0 .32 0 .11.01.21.01.32l.03.32c.01.1.03.21.05.31l.06.31c.02.1.05.2.08.3l.09.3c.03.1.07.2.11.29.04.1.08.19.12.29.04.09.09.19.14.28l.15.27c.05.09.11.17.17.26.06.09.12.17.18.25.06.08.13.16.19.24l.2.23c.07.07.14.15.21.22.07.07.15.14.22.21.08.07.15.13.23.19l.24.18c.08.06.17.11.25.17.09.05.17.1.26.15.09.05.18.09.27.14l.27.12c.09.04.18.07.28.11.09.03.19.06.28.09.09.03.19.05.28.08l.29.06c.1.02.19.03.29.05l.29.03c.15-.03.25-.03.35-.03h.29c.1 0 .19-.01.29-.01l.28-.03c.09-.01.19-.03.28-.04l.28-.06c.09-.02.18-.05.27-.07l.27-.09c.09-.03.18-.06.26-.1.09-.04.17-.07.26-.11.08-.04.17-.08.25-.13.08-.04.16-.09.24-.14.08-.05.16-.1.23-.15.08-.05.15-.11.22-.16.07-.06.14-.11.21-.17l.21-.18c.07-.06.13-.13.19-.19.06-.07.12-.13.18-.2s.12-.14.17-.21c.06-.07.11-.15.16-.22a4.6 4.6 0 00.28-.46l.12-.24c.04-.08.07-.16.11-.24.03-.08.07-.17.1-.25.03-.08.06-.17.08-.25.02-.08.05-.17.07-.26.02-.09.04-.17.05-.26.02-.09.03-.17.04-.26l.03-.26c.01-.09.01-.17.01-.26v-.26c0-.09-.01-.17-.01-.26l-.03-.26c-.01-.09-.03-.17-.04-.25-.02-.08-.03-.17-.05-.25-.02-.08-.04-.16-.07-.25-.02-.08-.05-.16-.08-.24l-.09-.24c-.03-.08-.07-.15-.1-.23a2.553 2.553 0 00-.39-.65c-.05-.07-.1-.13-.15-.2-.05-.07-.1-.13-.16-.19a2.81 2.81 0 00-.17-.18l-.17-.17c-.06-.06-.12-.11-.18-.16s-.13-.1-.19-.15c-.06-.05-.13-.09-.2-.14-.07-.04-.13-.09-.2-.13l-.21-.12c-.07-.04-.14-.07-.21-.11a4.97 4.97 0 00-.22-.09c-.07-.03-.15-.06-.22-.08-.07-.03-.15-.05-.23-.07l-.23-.06c-.08-.02-.15-.03-.23-.04l-.23-.03c-.08-.01-.15-.02-.23-.02-.08 0-.15-.01-.23-.01h-.23c-.08 0-.15.01-.23.02l-.22.03c-.07.01-.15.02-.22.04-.07.01-.15.03-.22.05l-.22.06c-.07.02-.14.05-.21.07-.07.03-.14.05-.21.08-.07.03-.13.06-.2.09s-.13.07-.19.1c-.06.04-.13.07-.19.11l-.18.12c-.06.04-.12.09-.17.13l-.17.14c-.05.05-.11.1-.16.15-.05.05-.1.1-.15.16-.05.05-.09.11-.14.16-.04.06-.09.11-.13.17-.04.06-.08.12-.12.17-.04.06-.07.12-.11.18-.03.06-.07.12-.1.18s-.06.13-.09.19-.05.13-.08.19c-.02.06-.05.13-.07.2l-.06.2c-.02.07-.03.13-.05.2-.01.07-.03.13-.04.2l-.03.2c-.01.07-.01.13-.01.2v.2c0 .07 0 .13.01.2 0 .07.01.13.02.2l.03.2c.01.06.02.13.04.19.01.06.03.13.05.19.02.06.04.12.06.19.02.06.04.12.07.18.02.06.05.12.08.18s.06.12.09.17c.03.06.06.11.09.17.03.05.07.11.1.16.04.05.07.1.11.15l.12.15c.04.05.08.09.12.14.04.05.09.09.13.13.04.04.09.08.14.12.05.04.09.08.14.12.05.04.1.07.15.11.05.03.1.07.15.1.05.03.1.06.16.09.05.03.11.06.16.08.05.03.11.05.16.07.06.02.11.04.17.06.06.02.11.04.17.05.06.02.11.03.17.05.06.01.11.03.17.04l.17.03c.06.01.12.01.17.02.06 0 .12.01.17.01h.17c.06 0 .11 0 .17-.01.06 0 .11-.01.17-.02l.17-.03c.05-.01.11-.02.16-.04.05-.01.11-.03.16-.04.05-.02.1-.03.16-.05l.15-.06c.05-.02.1-.04.15-.07.05-.02.1-.05.14-.08.05-.03.09-.05.14-.08.05-.03.09-.06.13-.09.04-.03.09-.06.13-.1.04-.03.08-.07.12-.1.04-.03.08-.07.12-.11l.11-.11c.04-.04.07-.08.1-.12l.09-.12c.03-.04.06-.08.09-.13.03-.04.06-.09.08-.13.03-.04.05-.09.07-.13.02-.04.04-.09.06-.14.02-.05.04-.09.06-.14.02-.05.03-.09.05-.14.02-.05.03-.09.04-.14.01-.05.02-.1.03-.14.01-.05.02-.1.03-.14.01-.04.01-.1.02-.14 0-.05.01-.1.01-.14v-.14c0-.05 0-.1-.01-.14 0-.05-.01-.09-.01-.14-.01-.05-.01-.09-.02-.14l-.03-.14-.03-.13c-.01-.04-.03-.09-.04-.13-.02-.04-.03-.09-.05-.13-.02-.04-.04-.08-.05-.12l-.06-.12a.746.746 0 00-.07-.12c-.02-.04-.05-.07-.07-.11l-.08-.11c-.03-.03-.05-.07-.08-.1l-.09-.09-.09-.09a.392.392 0 00-.1-.08c-.03-.03-.07-.05-.1-.08s-.07-.05-.1-.07c-.03-.02-.07-.05-.11-.07-.04-.02-.07-.04-.11-.06-.04-.02-.07-.04-.11-.05-.04-.02-.07-.03-.11-.05-.04-.01-.08-.03-.12-.04-.04-.01-.08-.02-.11-.03l-.12-.03c-.04-.01-.08-.01-.12-.02-.04-.01-.08-.01-.11-.01-.04 0-.08-.01-.12-.01h-.23c-.04 0-.07.01-.11.01-.03 0-.06.01-.1.01l-.12.03-.11.03c-.03.01-.07.02-.11.03-.03.01-.07.03-.1.04-.03.01-.07.03-.1.05-.03.02-.06.03-.09.05-.03.02-.06.04-.09.05l-.09.06c-.03.02-.06.04-.08.06a.5.5 0 00-.08.07c-.03.02-.05.05-.07.07l-.07.07a.5.5 0 01-.07.08c-.02.03-.04.05-.06.08-.02.03-.04.05-.06.08-.02.03-.03.05-.05.08-.02.03-.03.06-.04.08-.01.03-.03.06-.04.09l-.03.09-.03.09c-.01.03-.02.06-.02.09-.01.03-.01.06-.02.09 0 .03-.01.06-.01.09s0 .06-.01.09v.18c0 .03.01.06.01.09s.01.06.01.08c.01.03.01.06.02.08.01.03.02.06.02.08.01.03.02.05.03.08.01.03.02.05.03.08.01.03.02.05.04.07.01.02.03.05.04.07.01.02.03.05.04.07.02.02.03.04.05.06.02.02.03.04.05.06.02.02.04.04.05.06.02.02.04.04.06.05.02.02.04.04.06.05.02.02.04.03.06.05.02.01.04.03.07.04.02.01.04.02.07.04.02.01.04.02.07.03.02.01.04.02.07.03.02.01.05.02.07.02.02.01.05.01.08.02.02 0 .04.01.07.01.02 0 .04.01.07.01h.14c.02 0 .05 0 .07-.01.02 0 .05-.01.07-.01.02 0 .04-.01.07-.02.02-.01.04-.01.06-.02.02-.01.04-.02.06-.02.02-.01.05-.02.06-.03.02-.01.04-.02.07-.04.02-.01.04-.02.05-.03.02-.01.04-.03.06-.04.02-.01.03-.03.05-.04l.05-.05c.02-.02.03-.04.04-.05.01-.02.03-.04.04-.06l.03-.06.03-.06c.01-.02.02-.04.02-.07.01-.02.01-.04.02-.07 0-.02.01-.04.01-.07 0-.02 0-.05.01-.07v-.07c0-.03 0-.05-.01-.07 0-.02-.01-.05-.01-.07-.01-.02-.01-.04-.02-.07-.01-.02-.02-.05-.03-.06a.161.161 0 00-.04-.07c-.01-.02-.02-.03-.03-.04-.01-.02-.03-.04-.05-.07a.435.435 0 00-.21-.15l-.18-.06-.16.09c-.08.05-.14.11-.19.17l-.04.05-.02.06c-.01.03-.02.05-.03.08l-.04-.06-.04-.11-.01-.11.06-.23c.01-.01.01-.02.02-.03.01-.01.01-.02.02-.03.01-.01.01-.02.02-.03l.03-.03.03-.03.03-.03.03-.03.03-.03c.01-.01.02-.02.04-.03.01-.01.02-.02.04-.02.01-.01.03-.02.04-.03.01-.01.03-.02.04-.02.01-.01.03-.01.05-.02.01-.01.03-.01.05-.02.02-.01.03-.01.05-.02.02-.01.03-.01.05-.01.04-.01.08-.02.11-.02.02 0 .04 0 .06-.01h.17c.02 0 .04 0 .06.01.02 0 .04.01.06.01.02 0 .04.01.06.01.02.01.04.01.06.02.02.01.04.01.06.02.02.01.04.02.06.02l.06.03.06.03c.02.01.04.02.06.04.02.01.04.03.06.04.02.01.04.03.06.04.02.01.04.03.05.05l.05.05c.02.02.03.04.05.06.02.02.03.04.05.06.02.02.03.04.04.06.01.02.03.04.04.06.01.02.03.04.04.07.01.02.02.05.04.07.01.02.02.05.03.07.01.02.02.05.03.07.01.03.02.05.02.08.01.03.01.05.02.08s.01.05.02.08c0 .03.01.06.01.08 0 .03.01.06.01.08v.18c0 .03 0 .06-.01.09 0 .03-.01.06-.01.09s-.01.06-.02.09-.01.06-.02.09l-.03.09-.03.09c-.01.03-.02.06-.04.09-.01.03-.03.06-.04.09-.01.03-.03.06-.05.08-.02.03-.03.06-.05.08-.02.03-.04.05-.06.08-.02.03-.04.05-.06.08.01.06-.01.08-.03.11l-.07.07-.07.07c-.03.02-.05.05-.08.07-.03.02-.05.04-.08.06l-.09.06c-.03.02-.06.04-.09.05-.03.02-.06.03-.1.05a.3.3 0 01-.1.04c-.03.01-.07.03-.1.04-.03.01-.07.02-.1.04l-.11.03c-.04.01-.07.02-.11.02-.04.01-.07.01-.11.02-.04 0-.08.01-.11.01-.04 0-.08.01-.12.01h-.12c-.04 0-.08 0-.12-.01-.04 0-.08-.01-.12-.01-.04-.01-.08-.01-.12-.02a.502.502 0 00-.12-.02l-.12-.03a.564.564 0 01-.12-.04c-.04-.01-.08-.03-.11-.04-.04-.02-.08-.03-.11-.05-.04-.02-.07-.04-.11-.06-.04-.02-.07-.04-.11-.06-.04-.02-.07-.05-.11-.07-.04-.02-.07-.05-.1-.08s-.07-.05-.1-.08a.902.902 0 00-.1-.09l-.09-.09c-.03-.03-.06-.07-.09-.1a.7.7 0 01-.08-.1l-.08-.11c-.02-.04-.05-.08-.07-.11a.746.746 0 00-.07-.12l-.06-.12a.502.502 0 01-.05-.13c-.02-.04-.03-.09-.05-.13-.01-.04-.03-.09-.04-.13l-.03-.14-.03-.14c-.01-.05-.01-.09-.02-.14-.01-.05-.01-.09-.01-.14v-.3c0-.05.01-.1.01-.15 0-.05.01-.1.02-.15l.03-.15.03-.15c.01-.05.03-.1.04-.15.02-.05.03-.1.05-.14.02-.05.04-.09.06-.14.02-.05.04-.09.07-.14.02-.05.05-.09.07-.14.03-.05.05-.09.08-.13.03-.04.06-.09.09-.13.03-.04.06-.08.1-.13.03-.04.07-.08.1-.12.04-.04.07-.08.11-.12.04-.04.08-.07.12-.11.04-.04.08-.07.12-.1l.13-.1c.04-.03.09-.06.14-.09.05-.03.09-.06.14-.09.05-.03.1-.05.15-.08.05-.02.1-.05.15-.07.05-.02.1-.04.16-.06.05-.02.11-.04.16-.06.05-.02.11-.03.16-.05.06-.01.11-.03.17-.04l.17-.03c.06-.01.11-.02.17-.02.06-.01.12-.01.17-.01h.18c.06 0 .12 0 .17.01.06 0 .12.01.18.02l.18.03.18.03c.06.01.12.03.17.04.06.02.12.03.17.05.06.02.11.04.17.06.06.02.11.05.17.07.06.03.11.05.16.08s.11.06.16.09.11.07.16.1.1.07.15.11l.15.12c.05.04.1.08.14.12.05.04.09.09.14.13.04.05.09.09.13.14l.12.15c.04.05.08.1.11.16.04.05.07.11.11.16.03.05.07.11.1.17.03.06.06.12.09.17.03.06.06.12.08.18.03.06.05.12.07.18a4.39 4.39 0 01.11.38c.02.06.03.13.04.2l.03.2c.01.07.02.13.02.2.01.07.01.14.01.2v.21c0 .07 0 .14-.01.21 0 .07-.01.14-.02.21l-.03.21c-.01.07-.03.14-.04.2-.02.07-.03.14-.05.2l-.06.2c-.02.07-.05.13-.08.2s-.06.13-.09.19-.06.13-.1.19c-.03.06-.07.12-.11.19l-.12.18c-.04.06-.08.12-.13.18-.04.06-.09.11-.14.17-.05.06-.1.11-.15.16l-.16.16c-.05.05-.11.1-.16.15-.05.05-.11.09-.17.14-.06.04-.12.09-.18.13-.06.04-.12.08-.19.12-.06.04-.13.08-.2.11-.07.04-.13.07-.2.1l-.21.09c-.07.03-.14.06-.21.08-.07.03-.14.05-.22.07l-.22.06c-.07.02-.15.03-.23.05-.08.01-.15.03-.23.04-.08.01-.15.02-.23.02-.08.01-.16.01-.23.01h-.23c-.08 0-.16-.01-.24-.01l-.24-.03c-.08-.01-.16-.02-.23-.04-.08-.02-.16-.03-.23-.05l-.23-.06c-.08-.02-.15-.05-.23-.08-.08-.03-.15-.06-.23-.09-.07-.03-.15-.06-.22-.1-.07-.04-.14-.07-.22-.11l-.21-.12c-.07-.04-.14-.09-.2-.14-.07-.05-.13-.1-.2-.15-.07-.05-.13-.1-.19-.16a2.81 2.81 0 01-.18-.17l-.18-.18c-.06-.06-.11-.12-.17-.19-.05-.06-.11-.13-.16-.2l-.15-.21c-.05-.07-.09-.14-.14-.21-.04-.07-.09-.15-.12-.22-.04-.08-.08-.15-.11-.23-.04-.08-.07-.16-.1-.24l-.09-.24c-.03-.08-.05-.16-.08-.25l-.06-.25c-.02-.08-.04-.17-.05-.26-.01-.09-.03-.17-.04-.26-.01-.09-.02-.17-.02-.26-.01-.09-.01-.18-.01-.26v-.26c0-.09.01-.18.02-.26l.03-.27c.01-.09.03-.18.05-.26l.06-.26c.02-.09.05-.17.07-.26.03-.09.06-.17.09-.26.03-.08.07-.17.1-.25.04-.08.07-.17.11-.25.04-.08.08-.16.13-.24.04-.08.09-.16.14-.24.05-.08.1-.15.15-.23.05-.08.11-.15.17-.22l.18-.21c.06-.07.12-.14.19-.2.07-.07.13-.13.2-.19l.21-.18c.07-.06.15-.12.22-.17.08-.06.15-.11.23-.16l.24-.15c.08-.05.17-.09.25-.14.08-.04.17-.09.26-.13.09-.04.18-.08.26-.11.09-.04.18-.07.27-.1.09-.03.18-.06.28-.08.09-.03.19-.05.28-.07.09-.02.19-.04.29-.06.1-.02.19-.03.29-.04l.29-.03c.1-.01.19-.01.29-.01.1 0 .2 0 .29.01.1 0 .2.01.3.02.1.01.2.02.29.04.1.01.2.03.29.05.1.02.19.04.29.07.1.03.19.05.29.08.1.03.19.06.28.1.09.04.19.07.28.11.09.04.18.08.27.13.09.05.18.09.27.14.09.05.18.1.26.16.09.06.17.11.25.17.08.06.16.12.24.19.08.06.16.13.23.2.08.07.15.14.22.21.07.07.14.15.21.22.07.08.14.15.2.24.07.08.13.16.19.25.06.08.12.17.18.26s.11.18.16.27c.05.09.1.18.15.28.05.09.09.19.14.28.04.1.08.19.12.29.04.1.07.2.11.3l.09.3c.03.1.05.21.08.31l.06.31c.02.11.03.21.04.32l.03.32c.01.11.01.22.01.32 0 .11 0 .22-.01.32-.01.11-.01.22-.02.32-.01.11-.03.22-.04.32-.02.11-.04.22-.06.32-.02.11-.05.21-.08.32l-.09.32c-.03.1-.07.21-.11.31-.04.1-.08.21-.13.31-.04.1-.09.2-.14.3-.05.1-.1.2-.16.29-.06.1-.11.19-.17.29-.06.09-.12.19-.19.28-.07.09-.13.18-.21.27-.07.09-.14.17-.22.26-.08.08-.15.17-.23.25-.08.08-.16.16-.25.23-.08.08-.17.15-.26.22l-.27.21c-.09.07-.19.13-.28.19-.1.06-.19.12-.29.18-.1.06-.2.11-.3.16-.1.05-.21.1-.31.15-.11.05-.21.09-.32.13l-.33.12c-.11.04-.22.07-.33.1-.11.03-.23.06-.34.08-.11.02-.23.05-.34.06-.12.02-.23.03-.35.05l-.35.03c-.12.01-.23.01-.35.01-.12 0-.24 0-.35-.01l-.35-.03c-.12-.01-.24-.03-.35-.05a3.61 3.61 0 01-.35-.07c-.12-.02-.23-.05-.35-.08-.12-.03-.23-.07-.35-.1-.11-.04-.23-.08-.34-.12-.11-.04-.22-.09-.33-.14-.11-.05-.22-.1-.33-.16-.11-.06-.21-.11-.32-.17-.1-.06-.21-.12-.31-.19l-.3-.21c-.1-.07-.2-.15-.29-.22-.09-.08-.19-.16-.28-.24-.09-.08-.18-.17-.27-.25-.09-.09-.17-.18-.25-.27-.08-.09-.16-.19-.24-.28-.08-.1-.15-.2-.22-.3-.07-.1-.14-.2-.21-.31-.07-.1-.13-.21-.19-.32l-.18-.33a3.54 3.54 0 01-.16-.34c-.05-.11-.1-.23-.14-.35-.04-.12-.09-.24-.12-.36-.04-.12-.07-.24-.11-.36l-.09-.37c-.03-.12-.05-.25-.07-.37-.02-.13-.04-.25-.05-.38l-.03-.38c-.01-.13-.01-.26-.01-.38 0-.13 0-.26.01-.38l.03-.38c.01-.13.03-.26.05-.38.02-.13.05-.25.07-.38l.09-.38c.03-.13.07-.25.11-.37.04-.12.09-.25.13-.37l.15-.36c.05-.12.11-.24.17-.35.06-.12.12-.23.19-.34l.21-.33c.07-.11.15-.22.23-.32.08-.11.16-.21.24-.31.08-.1.17-.2.26-.3.09-.1.18-.19.28-.29.09-.09.19-.18.29-.27.1-.09.2-.17.31-.26.1-.08.21-.16.32-.24.11-.08.22-.15.33-.23.11-.07.23-.14.35-.21.12-.07.24-.13.36-.19s.24-.12.37-.17c.12-.05.25-.1.38-.15.13-.05.26-.09.39-.13.13-.04.26-.08.39-.11s.26-.07.4-.09c.13-.03.27-.05.4-.07.14-.02.27-.04.41-.05l.41-.03c.14-.01.28-.01.41-.01.14 0 .28.01.41.01.14.01.28.02.41.04.14.02.27.03.41.06.14.02.27.05.41.08.14.03.27.06.41.1l.4.12a6.082 6.082 0 01.78.31c.13.06.25.12.38.19s.25.13.37.21c.12.07.24.15.36.22.12.08.23.16.35.24.11.08.23.17.34.26.11.09.22.18.32.28.1.1.21.2.31.3.1.1.2.21.29.31.09.11.19.22.28.33.09.11.18.23.26.34l.24.36c.08.12.15.25.22.37.07.13.14.25.2.38s.13.26.18.4c.06.13.11.27.16.4.05.14.1.27.14.41l.12.42c.04.14.07.28.1.43.03.14.05.29.08.43.02.15.04.29.05.44l.03.44a6.192 6.192 0 01-.01.88c-.01.15-.02.3-.04.44l-.06.44c-.02.15-.05.29-.09.44-.03.15-.07.29-.11.43-.04.14-.08.29-.13.43s-.1.28-.16.42l-.18.42c-.06.14-.13.27-.2.41-.07.13-.14.27-.22.4-.08.13-.16.26-.24.38-.08.13-.17.25-.26.37s-.19.24-.28.36c-.1.12-.2.23-.3.34-.1.11-.21.22-.32.33-.11.11-.22.21-.34.31-.12.1-.23.2-.35.29-.12.1-.24.19-.37.28l-.38.26c-.13.08-.26.16-.4.24-.13.08-.27.15-.41.22-.14.07-.28.13-.42.19-.14.06-.29.12-.43.17-.15.05-.29.1-.44.15-.15.05-.3.09-.45.13-.15.04-.3.07-.46.1-.15.03-.31.06-.46.08l-.47.06-.47.03c-.16.01-.32.01-.47.01-.16 0-.32-.01-.47-.02a7.612 7.612 0 01-.94-.11l-.47-.09c-.16-.04-.31-.07-.46-.12-.15-.04-.31-.09-.46-.14-.15-.05-.3-.11-.45-.17-.15-.06-.3-.12-.44-.19-.15-.07-.29-.14-.43-.21-.14-.08-.28-.15-.42-.24-.14-.09-.28-.17-.41-.26-.13-.09-.27-.18-.4-.28-.13-.1-.26-.2-.38-.3-.12-.1-.25-.21-.37-.32-.12-.11-.24-.22-.35-.34l-.33-.36c-.11-.12-.21-.25-.31-.38s-.2-.26-.29-.39c-.09-.13-.19-.27-.27-.41a9.268 9.268 0 01-.48-.86l-.21-.45c-.06-.15-.13-.31-.18-.46-.06-.16-.11-.31-.16-.47-.01-.03-.31-.96-.32-1.01l-.13-.89-.45-3.07c-.61 1.2-.42 2.79-.42 3.39l.16 1.29.14.48.03.12c.05.18.11.35.18.52.06.17.13.34.2.51.07.17.15.33.23.5.08.16.17.33.25.49.09.16.18.32.28.47.1.15.2.31.3.45.1.15.21.3.33.44.11.14.23.28.35.42.12.14.24.27.37.4.12.13.26.26.39.38s.27.24.41.36c.14.11.28.23.42.34.14.11.29.21.44.31.15.1.3.2.46.29.15.09.31.18.47.26l.48.24c.16.07.33.15.49.21.16.07.33.13.5.19.17.06.34.11.51.16.17.05.34.09.52.13.17.04.35.07.52.1.17.03.35.06.53.08.18.02.36.04.53.05.18.01.36.02.53.02.18 0 .35 0 .53-.01l.53-.03.52-.06c.1-.02.21-.03.31-.05.07-.01.14-.03.21-.04.17-.03.34-.07.51-.12.17-.04.34-.09.5-.14.17-.05.33-.11.49-.17.16-.06.32-.12.48-.19.16-.07.32-.14.47-.22.16-.08.31-.16.46-.24.15-.08.3-.17.45-.26.15-.09.29-.19.43-.29.14-.1.28-.2.41-.31.14-.11.27-.22.4-.33.13-.11.25-.23.38-.35.12-.12.24-.24.36-.37s.23-.25.34-.38c.11-.13.21-.27.32-.4.1-.14.2-.28.29-.42.09-.14.18-.29.27-.43.09-.15.17-.29.25-.44a9.31 9.31 0 00.42-.92c.06-.16.12-.31.17-.47l.15-.48c.05-.16.09-.32.12-.49.04-.16.07-.33.1-.49.03-.16.05-.33.07-.5.02-.17.03-.33.04-.5.01-.17.02-.33.02-.5 0-.17 0-.33-.01-.5l-.03-.5-.06-.49a4.21 4.21 0 00-.09-.49c-.01-.19-.05-.35-.09-.51z"/><path fill="#EA417E" d="M142.35 94.6c-5.76 0-10.48-4.71-10.51-10.5 0-8 7.7-10.48 10.51-10.48 5.79 0 10.51 4.7 10.51 10.48-.01 5.79-4.72 10.5-10.51 10.5z"/><path fill="#F6EC13" d="M151.67 81.93c-.04-.16-.09-.32-.14-.47-.05-.16-.1-.31-.16-.47-.06-.15-.12-.31-.18-.46-.07-.15-.13-.3-.21-.44-.07-.15-.15-.29-.23-.43-.08-.14-.16-.28-.25-.42-.09-.14-.18-.27-.27-.4-.09-.13-.19-.26-.29-.39-.1-.13-.2-.25-.31-.37-.11-.12-.22-.24-.33-.35-.11-.12-.23-.23-.35-.34-.12-.11-.24-.21-.36-.32-.12-.1-.25-.2-.38-.3-.13-.1-.26-.19-.39-.28-.13-.09-.27-.17-.41-.25-.14-.08-.28-.16-.42-.23-.14-.07-.28-.14-.43-.21-.14-.07-.29-.13-.44-.19-.15-.06-.3-.11-.45-.16-.15-.05-.3-.1-.45-.14-.15-.04-.31-.08-.46-.11l-.46-.09c-.15-.03-.31-.05-.47-.07-.16-.02-.31-.03-.47-.04-.16-.01-.31-.01-.47-.02-.16 0-.31 0-.47.01l-.47.03c-.15.01-.31.03-.46.06-.15.02-.31.05-.46.08-.15.03-.3.07-.45.1-.15.04-.3.08-.45.13-.15.05-.29.1-.44.15-.14.05-.29.11-.43.17a7.99 7.99 0 00-.82.42c-.13.08-.26.15-.39.24-.13.08-.25.17-.38.26-.12.09-.25.18-.36.27-.12.09-.23.19-.35.29-.11.1-.22.2-.33.31-.11.11-.21.22-.31.33-.1.11-.2.23-.3.34-.1.12-.19.24-.28.36-.09.12-.17.24-.26.37-.08.13-.16.25-.24.38-.08.13-.15.26-.22.39s-.13.27-.2.4c-.06.14-.12.27-.17.41l-.15.42c-.05.14-.09.28-.13.42-.04.14-.07.29-.11.43-.03.14-.06.29-.08.43l-.06.44c-.02.15-.03.29-.04.44-.01.15-.01.29-.01.44 0 .15 0 .29.01.44l.03.44a6.29 6.29 0 00.13.86c.03.14.06.28.1.42l.12.42c.04.14.09.27.14.41.05.13.11.27.16.4l.18.39c.06.13.13.25.2.38.07.12.15.25.22.37a7.688 7.688 0 00.5.69 9.06 9.06 0 00.56.63c.1.1.2.2.31.29.1.09.21.19.32.27.11.09.22.17.33.26.11.08.23.16.35.24.12.08.24.15.36.22s.24.14.37.2c.12.06.25.12.38.18s.25.11.38.16.26.1.39.14c.13.04.26.08.4.12.13.04.27.07.4.1s.27.05.4.08c.14.02.27.04.41.05.14.01.27.03.41.03.14.01.27.01.41.01.14 0 .27 0 .41-.01l.41-.03c.13-.01.27-.03.4-.05.13-.02.27-.05.4-.07l.39-.09c.13-.03.26-.07.39-.11.13-.04.25-.09.38-.13.12-.05.25-.1.37-.15.12-.05.24-.11.36-.17.12-.06.24-.12.35-.19.12-.07.23-.14.34-.21.11-.07.22-.15.33-.22.11-.08.21-.16.31-.24.1-.08.2-.17.3-.26.1-.09.19-.18.29-.27a7.68 7.68 0 00.52-.59c.08-.1.16-.2.24-.31a6.1 6.1 0 00.42-.65c.06-.11.13-.23.18-.34.06-.12.11-.23.17-.35l.15-.36c.05-.12.09-.24.13-.36.04-.12.08-.25.11-.37l.09-.37c.03-.12.05-.25.07-.38.02-.13.04-.25.05-.38l.03-.38c.01-.13.01-.25.01-.38s0-.25-.01-.38l-.03-.38a4.69 4.69 0 00-.05-.37c-.02-.12-.04-.25-.07-.37l-.09-.36c-.03-.12-.07-.24-.11-.36-.04-.12-.08-.23-.13-.35-.04-.12-.09-.23-.14-.34-.05-.11-.1-.22-.16-.33-.06-.11-.12-.22-.18-.32-.06-.11-.13-.21-.19-.31l-.21-.3c-.07-.1-.15-.2-.22-.29-.08-.09-.16-.19-.24-.28-.08-.09-.17-.18-.25-.26-.09-.09-.17-.17-.27-.25-.09-.08-.18-.16-.28-.23-.09-.08-.19-.15-.29-.22-.1-.07-.2-.14-.3-.2-.1-.06-.2-.13-.31-.19-.1-.06-.21-.12-.32-.17-.11-.05-.21-.1-.32-.15-.11-.05-.22-.09-.33-.13-.11-.04-.22-.08-.34-.12-.11-.04-.23-.07-.34-.1a4.18 4.18 0 00-.34-.08c-.11-.02-.23-.04-.35-.06-.12-.02-.23-.03-.35-.04-.12-.01-.23-.02-.35-.02-.12-.01-.23-.01-.35-.01-.12 0-.23.01-.35.01l-.35.03c-.11.01-.23.03-.34.05-.11.02-.23.04-.34.07-.11.02-.22.05-.33.08-.11.03-.22.06-.33.1-.11.04-.22.08-.32.12-.11.04-.21.09-.31.13-.1.05-.21.1-.31.15-.1.05-.2.11-.3.16-.1.06-.19.12-.29.18l-.28.19c-.09.07-.18.14-.26.21-.09.07-.17.15-.25.22-.08.08-.16.15-.24.23-.08.08-.15.16-.23.24-.07.08-.14.17-.21.26-.07.09-.13.18-.2.27-.06.09-.13.18-.18.27-.06.09-.12.19-.17.28-.05.1-.1.19-.15.29-.05.1-.09.2-.14.3l-.12.3c-.04.1-.07.2-.1.31l-.09.31c-.03.1-.05.21-.07.32-.02.11-.04.21-.05.32-.02.11-.03.21-.04.32-.01.11-.02.21-.02.32 0 .11-.01.21 0 .32 0 .11.01.21.01.32l.03.32c.01.1.03.21.05.31l.06.31c.02.1.05.2.08.3l.09.3c.03.1.07.2.11.29.04.1.08.19.12.29.04.09.09.19.14.28l.15.27c.05.09.11.17.17.26.06.09.12.17.18.25.06.08.13.16.19.24l.2.23c.07.07.14.15.21.22.07.07.15.14.22.21.08.07.15.13.23.19l.24.18c.08.06.17.11.25.17.09.05.17.1.26.15.09.05.18.09.27.14l.27.12c.09.04.18.07.28.11.09.03.19.06.28.09.09.03.19.05.28.08l.29.06c.1.02.19.03.29.05l.29.03c.15-.03.25-.03.35-.03h.29c.1 0 .19-.01.29-.01l.28-.03c.09-.01.19-.03.28-.04l.28-.06c.09-.02.18-.05.27-.07l.27-.09c.09-.03.18-.06.26-.1.09-.04.17-.07.26-.11.08-.04.17-.08.25-.13.08-.04.16-.09.24-.14.08-.05.16-.1.23-.15.08-.05.15-.11.22-.16.07-.06.14-.11.21-.17l.21-.18c.07-.06.13-.13.19-.19.06-.07.12-.13.18-.2s.12-.14.17-.21c.06-.07.11-.15.16-.22a4.6 4.6 0 00.28-.46l.12-.24c.04-.08.07-.16.11-.24.03-.08.07-.17.1-.25.03-.08.06-.17.08-.25.02-.08.05-.17.07-.26.02-.09.04-.17.05-.26.02-.09.03-.17.04-.26l.03-.26c.01-.09.01-.17.01-.26v-.26c0-.09-.01-.17-.01-.26l-.03-.26c-.01-.09-.03-.17-.04-.25-.02-.08-.03-.17-.05-.25-.02-.08-.04-.16-.07-.25-.02-.08-.05-.16-.08-.24l-.09-.24c-.03-.08-.07-.15-.1-.23a2.553 2.553 0 00-.39-.65c-.05-.07-.1-.13-.15-.2-.05-.07-.1-.13-.16-.19a2.81 2.81 0 00-.17-.18l-.17-.17c-.06-.06-.12-.11-.18-.16s-.13-.1-.19-.15c-.06-.05-.13-.09-.2-.14-.07-.04-.13-.09-.2-.13l-.21-.12c-.07-.04-.14-.07-.21-.11a4.97 4.97 0 00-.22-.09c-.07-.03-.15-.06-.22-.08-.07-.03-.15-.05-.23-.07l-.23-.06c-.08-.02-.15-.03-.23-.04l-.23-.03c-.08-.01-.15-.02-.23-.02-.08 0-.15-.01-.23-.01h-.23c-.08 0-.15.01-.23.02l-.22.03c-.07.01-.15.02-.22.04-.07.01-.15.03-.22.05l-.22.06c-.07.02-.14.05-.21.07-.07.03-.14.05-.21.08-.07.03-.13.06-.2.09s-.13.07-.19.1c-.06.04-.13.07-.19.11l-.18.12c-.06.04-.12.09-.17.13l-.17.14c-.05.05-.11.1-.16.15-.05.05-.1.1-.15.16-.05.05-.09.11-.14.16-.04.06-.09.11-.13.17-.04.06-.08.12-.12.17-.04.06-.07.12-.11.18-.03.06-.07.12-.1.18s-.06.13-.09.19-.05.13-.08.19c-.02.06-.05.13-.07.2l-.06.2c-.02.07-.03.13-.05.2-.01.07-.03.13-.04.2l-.03.2c-.01.07-.01.13-.01.2v.2c0 .07 0 .13.01.2 0 .07.01.13.02.2l.03.2c.01.06.02.13.04.19.01.06.03.13.05.19.02.06.04.12.06.19.02.06.04.12.07.18.02.06.05.12.08.18s.06.12.09.17c.03.06.06.11.09.17.03.05.07.11.1.16.04.05.07.1.11.15l.12.15c.04.05.08.09.12.14.04.05.09.09.13.13.04.04.09.08.14.12.05.04.09.08.14.12.05.04.1.07.15.11.05.03.1.07.15.1.05.03.1.06.16.09.05.03.11.06.16.08.05.03.11.05.16.07.06.02.11.04.17.06.06.02.11.04.17.05.06.02.11.03.17.05.06.01.11.03.17.04l.17.03c.06.01.12.01.17.02.06 0 .12.01.17.01h.17c.06 0 .11 0 .17-.01.06 0 .11-.01.17-.02l.17-.03c.05-.01.11-.02.16-.04.05-.01.11-.03.16-.04.05-.02.1-.03.16-.05l.15-.06c.05-.02.1-.04.15-.07.05-.02.1-.05.14-.08.05-.03.09-.05.14-.08.05-.03.09-.06.13-.09.04-.03.09-.06.13-.1.04-.03.08-.07.12-.1.04-.03.08-.07.12-.11l.11-.11c.04-.04.07-.08.1-.12l.09-.12c.03-.04.06-.08.09-.13.03-.04.06-.09.08-.13.03-.04.05-.09.07-.13.02-.04.04-.09.06-.14.02-.05.04-.09.06-.14.02-.05.03-.09.05-.14.02-.05.03-.09.04-.14.01-.05.02-.1.03-.14.01-.05.02-.1.03-.14.01-.04.01-.1.02-.14 0-.05.01-.1.01-.14v-.14c0-.05 0-.1-.01-.14 0-.05-.01-.09-.01-.14-.01-.05-.01-.09-.02-.14l-.03-.14-.03-.13c-.01-.04-.03-.09-.04-.13-.02-.04-.03-.09-.05-.13-.02-.04-.04-.08-.05-.12l-.06-.12a.746.746 0 00-.07-.12c-.02-.04-.05-.07-.07-.11l-.08-.11c-.03-.03-.05-.07-.08-.1l-.09-.09-.09-.09a.392.392 0 00-.1-.08c-.03-.03-.07-.05-.1-.08s-.07-.05-.1-.07c-.03-.02-.07-.05-.11-.07-.04-.02-.07-.04-.11-.06-.04-.02-.07-.04-.11-.05-.04-.02-.07-.03-.11-.05-.04-.01-.08-.03-.12-.04-.04-.01-.08-.02-.11-.03l-.12-.03c-.04-.01-.08-.01-.12-.02-.04-.01-.08-.01-.11-.01-.04 0-.08-.01-.12-.01h-.23c-.04 0-.07.01-.11.01-.03 0-.06.01-.1.01l-.12.03-.11.03c-.03.01-.07.02-.11.03-.03.01-.07.03-.1.04-.03.01-.07.03-.1.05-.03.02-.06.03-.09.05-.03.02-.06.04-.09.05l-.09.06c-.03.02-.06.04-.08.06a.5.5 0 00-.08.07c-.03.02-.05.05-.07.07l-.07.07a.5.5 0 01-.07.08c-.02.03-.04.05-.06.08-.02.03-.04.05-.06.08-.02.03-.03.05-.05.08-.02.03-.03.06-.04.08-.01.03-.03.06-.04.09l-.03.09-.03.09c-.01.03-.02.06-.02.09-.01.03-.01.06-.02.09 0 .03-.01.06-.01.09s0 .06-.01.09v.18c0 .03.01.06.01.09s.01.06.01.08c.01.03.01.06.02.08.01.03.02.06.02.08.01.03.02.05.03.08.01.03.02.05.03.08.01.03.02.05.04.07.01.02.03.05.04.07.01.02.03.05.04.07.02.02.03.04.05.06.02.02.03.04.05.06.02.02.04.04.05.06.02.02.04.04.06.05.02.02.04.04.06.05.02.02.04.03.06.05.02.01.04.03.07.04.02.01.04.02.07.04.02.01.04.02.07.03.02.01.04.02.07.03.02.01.05.02.07.02.02.01.05.01.08.02.02 0 .04.01.07.01.02 0 .04.01.07.01h.14c.02 0 .05 0 .07-.01.02 0 .05-.01.07-.01.02 0 .04-.01.07-.02.02-.01.04-.01.06-.02.02-.01.04-.02.06-.02.02-.01.05-.02.06-.03.02-.01.04-.02.07-.04.02-.01.04-.02.05-.03.02-.01.04-.03.06-.04.02-.01.03-.03.05-.04l.05-.05c.02-.02.03-.04.04-.05.01-.02.03-.04.04-.06l.03-.06.03-.06c.01-.02.02-.04.02-.07.01-.02.01-.04.02-.07 0-.02.01-.04.01-.07 0-.02 0-.05.01-.07V84c0-.03 0-.05-.01-.07 0-.02-.01-.05-.01-.07-.01-.02-.01-.04-.02-.07-.01-.02-.02-.05-.03-.06a.161.161 0 00-.04-.07c-.01-.02-.02-.03-.03-.04-.01-.02-.03-.04-.05-.07a.435.435 0 00-.21-.15l-.18-.06-.16.09c-.08.05-.14.11-.19.17l-.04.05-.02.06c-.01.03-.02.05-.03.08l-.04-.06-.04-.11-.01-.11.06-.23c.01-.01.01-.02.02-.03.01-.01.01-.02.02-.03.01-.01.01-.02.02-.03l.03-.03.03-.03.03-.03.03-.03.03-.03c.01-.01.02-.02.04-.03.01-.01.02-.02.04-.02.01-.01.03-.02.04-.03.01-.01.03-.02.04-.02.01-.01.03-.01.05-.02.01-.01.03-.01.05-.02.02-.01.03-.01.05-.02.02-.01.03-.01.05-.01.04-.01.08-.02.11-.02.02 0 .04 0 .06-.01h.17c.02 0 .04 0 .06.01.02 0 .04.01.06.01.02 0 .04.01.06.01.02.01.04.01.06.02.02.01.04.01.06.02.02.01.04.02.06.02l.06.03.06.03c.02.01.04.02.06.04.02.01.04.03.06.04.02.01.04.03.06.04.02.01.04.03.05.05l.05.05c.02.02.03.04.05.06.02.02.03.04.05.06.02.02.03.04.04.06.01.02.03.04.04.06.01.02.03.04.04.07.01.02.02.05.04.07.01.02.02.05.03.07.01.02.02.05.03.07.01.03.02.05.02.08.01.03.01.05.02.08s.01.05.02.08c0 .03.01.06.01.08 0 .03.01.06.01.08v.18c0 .03 0 .06-.01.09 0 .03-.01.06-.01.09s-.01.06-.02.09-.01.06-.02.09l-.03.09-.03.09c-.01.03-.02.06-.04.09-.01.03-.03.06-.04.09-.01.03-.03.06-.05.08-.02.03-.03.06-.05.08-.02.03-.04.05-.06.08-.02.03-.04.05-.06.08.01.06-.01.08-.03.11l-.07.07-.07.07c-.03.02-.05.05-.08.07-.03.02-.05.04-.08.06l-.09.06c-.03.02-.06.04-.09.05-.03.02-.06.03-.1.05a.3.3 0 01-.1.04c-.03.01-.07.03-.1.04-.03.01-.07.02-.1.04l-.11.03c-.04.01-.07.02-.11.02-.04.01-.07.01-.11.02-.04 0-.08.01-.11.01-.04 0-.08.01-.12.01h-.12c-.04 0-.08 0-.12-.01-.04 0-.08-.01-.12-.01-.04-.01-.08-.01-.12-.02a.502.502 0 00-.12-.02l-.12-.03a.564.564 0 01-.12-.04c-.04-.01-.08-.03-.11-.04-.04-.02-.08-.03-.11-.05-.04-.02-.07-.04-.11-.06-.04-.02-.07-.04-.11-.06-.04-.02-.07-.05-.11-.07-.04-.02-.07-.05-.1-.08s-.07-.05-.1-.08a.902.902 0 00-.1-.09l-.09-.09c-.03-.03-.06-.07-.09-.1a.7.7 0 01-.08-.1l-.08-.11c-.02-.04-.05-.08-.07-.11a.746.746 0 00-.07-.12l-.06-.12a.502.502 0 01-.05-.13c-.02-.04-.03-.09-.05-.13-.01-.04-.03-.09-.04-.13l-.03-.14-.03-.14c-.01-.05-.01-.09-.02-.14-.01-.05-.01-.09-.01-.14v-.3c0-.05.01-.1.01-.15 0-.05.01-.1.02-.15l.03-.15.03-.15c.01-.05.03-.1.04-.15.02-.05.03-.1.05-.14.02-.05.04-.09.06-.14.02-.05.04-.09.07-.14.02-.05.05-.09.07-.14.03-.05.05-.09.08-.13.03-.04.06-.09.09-.13.03-.04.06-.08.1-.13.03-.04.07-.08.1-.12.04-.04.07-.08.11-.12.04-.04.08-.07.12-.11.04-.04.08-.07.12-.1l.13-.1c.04-.03.09-.06.14-.09.05-.03.09-.06.14-.09.05-.03.1-.05.15-.08.05-.02.1-.05.15-.07.05-.02.1-.04.16-.06.05-.02.11-.04.16-.06.05-.02.11-.03.16-.05.06-.01.11-.03.17-.04l.17-.03c.06-.01.11-.02.17-.02.06-.01.12-.01.17-.01h.18c.06 0 .12 0 .17.01.06 0 .12.01.18.02l.18.03.18.03c.06.01.12.03.17.04.06.02.12.03.17.05.06.02.11.04.17.06.06.02.11.05.17.07.06.03.11.05.16.08s.11.06.16.09.11.07.16.1.1.07.15.11l.15.12c.05.04.1.08.14.12.05.04.09.09.14.13.04.05.09.09.13.14l.12.15c.04.05.08.1.11.16.04.05.07.11.11.16.03.05.07.11.1.17.03.06.06.12.09.17.03.06.06.12.08.18.03.06.05.12.07.18a4.39 4.39 0 01.11.38c.02.06.03.13.04.2l.03.2c.01.07.02.13.02.2.01.07.01.14.01.2v.21c0 .07 0 .14-.01.21 0 .07-.01.14-.02.21l-.03.21c-.01.07-.03.14-.04.2-.02.07-.03.14-.05.2l-.06.2c-.02.07-.05.13-.08.2s-.06.13-.09.19-.06.13-.1.19c-.03.06-.07.12-.11.19l-.12.18c-.04.06-.08.12-.13.18-.04.06-.09.11-.14.17-.05.06-.1.11-.15.16l-.16.16c-.05.05-.11.1-.16.15-.05.05-.11.09-.17.14-.06.04-.12.09-.18.13-.06.04-.12.08-.19.12-.06.04-.13.08-.2.11-.07.04-.13.07-.2.1l-.21.09c-.07.03-.14.06-.21.08-.07.03-.14.05-.22.07l-.22.06c-.07.02-.15.03-.23.05-.08.01-.15.03-.23.04-.08.01-.15.02-.23.02-.08.01-.16.01-.23.01h-.23c-.08 0-.16-.01-.24-.01l-.24-.03c-.08-.01-.16-.02-.23-.04-.08-.02-.16-.03-.23-.05l-.23-.06c-.08-.02-.15-.05-.23-.08-.08-.03-.15-.06-.23-.09-.07-.03-.15-.06-.22-.1-.07-.04-.14-.07-.22-.11l-.21-.12c-.07-.04-.14-.09-.2-.14-.07-.05-.13-.1-.2-.15-.07-.05-.13-.1-.19-.16a2.81 2.81 0 01-.18-.17l-.18-.18c-.06-.06-.11-.12-.17-.19-.05-.06-.11-.13-.16-.2l-.15-.21c-.05-.07-.09-.14-.14-.21-.04-.07-.09-.15-.12-.22-.04-.08-.08-.15-.11-.23-.04-.08-.07-.16-.1-.24l-.09-.24c-.03-.08-.05-.16-.08-.25l-.06-.25c-.02-.08-.04-.17-.05-.26-.01-.09-.03-.17-.04-.26-.01-.09-.02-.17-.02-.26-.01-.09-.01-.18-.01-.26v-.26c0-.09.01-.18.02-.26l.03-.27c.01-.09.03-.18.05-.26l.06-.26c.02-.09.05-.17.07-.26.03-.09.06-.17.09-.26.03-.08.07-.17.1-.25.04-.08.07-.17.11-.25.04-.08.08-.16.13-.24.04-.08.09-.16.14-.24.05-.08.1-.15.15-.23.05-.08.11-.15.17-.22l.18-.21c.06-.07.12-.14.19-.2.07-.07.13-.13.2-.19l.21-.18c.07-.06.15-.12.22-.17.08-.06.15-.11.23-.16l.24-.15c.08-.05.17-.09.25-.14.08-.04.17-.09.26-.13.09-.04.18-.08.26-.11.09-.04.18-.07.27-.1.09-.03.18-.06.28-.08.09-.03.19-.05.28-.07.09-.02.19-.04.29-.06.1-.02.19-.03.29-.04l.29-.03c.1-.01.19-.01.29-.01.1 0 .2 0 .29.01.1 0 .2.01.3.02.1.01.2.02.29.04.1.01.2.03.29.05.1.02.19.04.29.07.1.03.19.05.29.08.1.03.19.06.28.1.09.04.19.07.28.11.09.04.18.08.27.13.09.05.18.09.27.14.09.05.18.1.26.16.09.06.17.11.25.17.08.06.16.12.24.19.08.06.16.13.23.2.08.07.15.14.22.21.07.07.14.15.21.22.07.08.14.15.2.24.07.08.13.16.19.25.06.08.12.17.18.26s.11.18.16.27c.05.09.1.18.15.28.05.09.09.19.14.28.04.1.08.19.12.29.04.1.07.2.11.3l.09.3c.03.1.05.21.08.31l.06.31c.02.11.03.21.04.32l.03.32c.01.11.01.22.01.32 0 .11 0 .22-.01.32-.01.11-.01.22-.02.32-.01.11-.03.22-.04.32-.02.11-.04.22-.06.32-.02.11-.05.21-.08.32l-.09.32c-.03.1-.07.21-.11.31-.04.1-.08.21-.13.31-.04.1-.09.2-.14.3-.05.1-.1.2-.16.29-.06.1-.11.19-.17.29-.06.09-.12.19-.19.28-.07.09-.13.18-.21.27-.07.09-.14.17-.22.26-.08.08-.15.17-.23.25-.08.08-.16.16-.25.23-.08.08-.17.15-.26.22l-.27.21c-.09.07-.19.13-.28.19-.1.06-.19.12-.29.18-.1.06-.2.11-.3.16-.1.05-.21.1-.31.15-.11.05-.21.09-.32.13l-.33.12c-.11.04-.22.07-.33.1-.11.03-.23.06-.34.08-.11.02-.23.05-.34.06-.12.02-.23.03-.35.05l-.35.03c-.12.01-.23.01-.35.01-.12 0-.24 0-.35-.01l-.35-.03c-.12-.01-.24-.03-.35-.05a3.61 3.61 0 01-.35-.07c-.12-.02-.23-.05-.35-.08-.12-.03-.23-.07-.35-.1-.11-.04-.23-.08-.34-.12-.11-.04-.22-.09-.33-.14-.11-.05-.22-.1-.33-.16-.11-.06-.21-.11-.32-.17-.1-.06-.21-.12-.31-.19l-.3-.21c-.1-.07-.2-.15-.29-.22-.09-.08-.19-.16-.28-.24-.09-.08-.18-.17-.27-.25-.09-.09-.17-.18-.25-.27-.08-.09-.16-.19-.24-.28-.08-.1-.15-.2-.22-.3-.07-.1-.14-.2-.21-.31-.07-.1-.13-.21-.19-.32l-.18-.33a3.54 3.54 0 01-.16-.34c-.05-.11-.1-.23-.14-.35-.04-.12-.09-.24-.12-.36-.04-.12-.07-.24-.11-.36l-.09-.37c-.03-.12-.05-.25-.07-.37-.02-.13-.04-.25-.05-.38l-.03-.38c-.01-.13-.01-.26-.01-.38 0-.13 0-.26.01-.38l.03-.38c.01-.13.03-.26.05-.38.02-.13.05-.25.07-.38l.09-.38c.03-.13.07-.25.11-.37.04-.12.09-.25.13-.37l.15-.36c.05-.12.11-.24.17-.35.06-.12.12-.23.19-.34l.21-.33c.07-.11.15-.22.23-.32.08-.11.16-.21.24-.31.08-.1.17-.2.26-.3.09-.1.18-.19.28-.29.09-.09.19-.18.29-.27.1-.09.2-.17.31-.26.1-.08.21-.16.32-.24.11-.08.22-.15.33-.23.11-.07.23-.14.35-.21.12-.07.24-.13.36-.19s.24-.12.37-.17c.12-.05.25-.1.38-.15.13-.05.26-.09.39-.13.13-.04.26-.08.39-.11s.26-.07.4-.09c.13-.03.27-.05.4-.07.14-.02.27-.04.41-.05l.41-.03c.14-.01.28-.01.41-.01.14 0 .28.01.41.01.14.01.28.02.41.04.14.02.27.03.41.06.14.02.27.05.41.08.14.03.27.06.41.1l.4.12a6.082 6.082 0 01.78.31c.13.06.25.12.38.19s.25.13.37.21c.12.07.24.15.36.22.12.08.23.16.35.24.11.08.23.17.34.26.11.09.22.18.32.28.1.1.21.2.31.3.1.1.2.21.29.31.09.11.19.22.28.33.09.11.18.23.26.34l.24.36c.08.12.15.25.22.37.07.13.14.25.2.38s.13.26.18.4c.06.13.11.27.16.4.05.14.1.27.14.41l.12.42c.04.14.07.28.1.43.03.14.05.29.08.43.02.15.04.29.05.44l.03.44a6.192 6.192 0 01-.01.88c-.01.15-.02.3-.04.44l-.06.44c-.02.15-.05.29-.09.44-.03.15-.07.29-.11.43-.04.14-.08.29-.13.43s-.1.28-.16.42l-.18.42c-.06.14-.13.27-.2.41-.07.13-.14.27-.22.4-.08.13-.16.26-.24.38-.08.13-.17.25-.26.37s-.19.24-.28.36c-.1.12-.2.23-.3.34-.1.11-.21.22-.32.33-.11.11-.22.21-.34.31-.12.1-.23.2-.35.29-.12.1-.24.19-.37.28l-.38.26c-.13.08-.26.16-.4.24-.13.08-.27.15-.41.22-.14.07-.28.13-.42.19-.14.06-.29.12-.43.17-.15.05-.29.1-.44.15-.15.05-.3.09-.45.13-.15.04-.3.07-.46.1-.15.03-.31.06-.46.08l-.47.06-.47.03c-.16.01-.32.01-.47.01-.16 0-.32-.01-.47-.02a7.612 7.612 0 01-.94-.11l-.47-.09c-.16-.04-.31-.07-.46-.12-.15-.04-.31-.09-.46-.14-.15-.05-.3-.11-.45-.17-.15-.06-.3-.12-.44-.19-.15-.07-.29-.14-.43-.21-.14-.08-.28-.15-.42-.24-.14-.09-.28-.17-.41-.26-.13-.09-.27-.18-.4-.28-.13-.1-.26-.2-.38-.3-.12-.1-.25-.21-.37-.32-.12-.11-.24-.22-.35-.34l-.33-.36c-.11-.12-.21-.25-.31-.38s-.2-.26-.29-.39c-.09-.13-.19-.27-.27-.41a9.268 9.268 0 01-.48-.86l-.21-.45c-.06-.15-.13-.31-.18-.46-.06-.16-.11-.31-.16-.47-.01-.03-.31-.96-.32-1.01l-.13-.89-.45-3.07c-.61 1.2-.42 2.79-.42 3.39l.16 1.29.14.48.03.12c.05.18.11.35.18.52.06.17.13.34.2.51.07.17.15.33.23.5.08.16.17.33.25.49.09.16.18.32.28.47.1.15.2.31.3.45.1.15.21.3.33.44.11.14.23.28.35.42.12.14.24.27.37.4.12.13.26.26.39.38s.27.24.41.36c.14.11.28.23.42.34.14.11.29.21.44.31.15.1.3.2.46.29.15.09.31.18.47.26l.48.24c.16.07.33.15.49.21.16.07.33.13.5.19.17.06.34.11.51.16.17.05.34.09.52.13.17.04.35.07.52.1.17.03.35.06.53.08.18.02.36.04.53.05.18.01.36.02.53.02.18 0 .35 0 .53-.01l.53-.03.52-.06c.1-.02.21-.03.31-.05.07-.01.14-.03.21-.04.17-.03.34-.07.51-.12.17-.04.34-.09.5-.14.17-.05.33-.11.49-.17.16-.06.32-.12.48-.19.16-.07.32-.14.47-.22.16-.08.31-.16.46-.24.15-.08.3-.17.45-.26.15-.09.29-.19.43-.29.14-.1.28-.2.41-.31.14-.11.27-.22.4-.33.13-.11.25-.23.38-.35.12-.12.24-.24.36-.37s.23-.25.34-.38c.11-.13.21-.27.32-.4.1-.14.2-.28.29-.42.09-.14.18-.29.27-.43.09-.15.17-.29.25-.44a9.31 9.31 0 00.42-.92c.06-.16.12-.31.17-.47l.15-.48c.05-.16.09-.32.12-.49.04-.16.07-.33.1-.49.03-.16.05-.33.07-.5.02-.17.03-.33.04-.5.01-.17.02-.33.02-.5 0-.17 0-.33-.01-.5l-.03-.5-.06-.49a4.21 4.21 0 00-.09-.49c-.01-.19-.05-.35-.09-.51z"/></g></symbol><symbol viewBox="0 0 449 546" id="logo" xmlns="http://www.w3.org/2000/svg"><g fill="none" fill-rule="evenodd"><g fill="#FFF"><path d="M188.35 520.33c-1.64-3.61-5.07-4.21-7.51-1.14-1.52 1.9-2.41 4.3-3.61 6.46-1.37 2.45-2.4 5.2-4.2 7.28-7.08 8.21-16.48 7.74-25.83 6-6.19-1.17-11.66-4.34-16.8-8-15.43-11.1-25-25.78-27.65-44.75a12.41 12.41 0 01.1-2.27 22.08 22.08 0 013.05 3.12c2.95 2.81 5.77 5.84 9.1 8.13 3.48 2.39 6.35 1.91 9.43-1a80.52 80.52 0 007.71-8.59 20.54 20.54 0 002.82-5.73c1.14-3.2.2-5.73-2.36-8-1.69-1.52-3.77-2.92-3.75-5.91l2.24.28c4.16.55 8.31 1.27 12.48 1.63 3.83.33 6.9-1.17 8.42-4.91 2.28-5.65 3.62-11.41 1.91-17.53-.72-2.55-2.19-3.54-4.88-3.45-1 0-2 0-3.05.06a31 31 0 01-42.47-15.68 12.59 12.59 0 01-1.73.13 12.19 12.19 0 110-24.37 13 13 0 011.74.13c.23-.55.51-1.09.78-1.63a41.46 41.46 0 011.14-6.22 2.64 2.64 0 01-.06-1c.94-5.79 1.27-11.82 6.47-16a3.59 3.59 0 001-3.15c-.83-2.4-1.13-5.56-5-5.32.21-.49.25-.82.42-.91 2.86-1.47 2.36-4.38 2.48-6.71.09-2-3.62-4.58-6.08-4.75-5.72-.38-11.23.22-16.16 3.59-2.54 1.73-5.29 3.2-5.22 6.87v1.54c1.2 5 3.79 10 0 14.94v1c.35.72 1 1.43 1 2.15.05 4.37-.19 8.75-.08 13.12.33 12.33.51 24.68 1.28 37 .64 10.33 1.78 20.64 3.18 30.9a111.29 111.29 0 006.93 25.38c4.34 11.06 9.79 21.52 17.41 30.65 11.76 14.08 26.35 22.8 45.34 22.3a93.5 93.5 0 0010.71-.86c7.92-1.13 14.64-4.45 18.52-11.8 2.19-4.13 2.78-8.58.78-12.98z"/><path fill-rule="nonzero" d="M121.89 413.86a2.74 2.74 0 102.74 2.74 2.73 2.73 0 00-2.74-2.74zm19.94 0a2.74 2.74 0 100 5.48 2.74 2.74 0 000-5.48z"/><path fill-rule="nonzero" d="M161.62 404.1a10 10 0 00-2.28.27 28.91 28.91 0 00-20-18.22c-.93-.23-1.87-.43-2.82-.57a28.64 28.64 0 00-8.8 0 28.31 28.31 0 00-8.13 2.51 29 29 0 00-14.75 16.51 9.67 9.67 0 00-3.06-.5c-5.542 0-10.035 4.493-10.035 10.035s4.493 10.035 10.035 10.035a9.67 9.67 0 003.06-.5 28.89 28.89 0 0054.51.19 10 10 0 102.28-19.8l-.01.04zm-29.47 35.46c-14.038-.017-25.413-11.392-25.43-25.43.003-.936.056-1.87.16-2.8a13.78 13.78 0 0113.28-10.2 12.86 12.86 0 0111.7 7.56 12.85 12.85 0 0111.7-7.56c7.1 0 13.61 5.87 13.61 13l.13 3.61c-1.803 12.51-12.512 21.8-25.15 21.82z"/></g><g fill-rule="nonzero" stroke="#FFF" stroke-width="5"><path d="M317.46 145.38c3.53 13.71 8.9 29.79 12.6 49 3.7 19.21 5.48 35.75 5.34 49.66-.14 13.91-2.26 24.9-6.2 32.93-3.94 8.03-8.74 14.19-14.39 18.33a52.9 52.9 0 01-20.25 8.64c-32 6.89-54.38-23-67.76-90.16-9.62-48.41-8.27-78.9 4.52-91.74 12.79-12.84 25.78-20.81 38.8-23.85 4.84-1.1 8.44-1.58 10.81-1.29 2.37.29 5.8 1.94 10.3 5 4.5 3.06 8.84 7.57 12.89 13.69a94 94 0 0113.23 29.27l.11.52zm-57.7 59c3.453 18.213 8.293 34.277 14.52 48.19 6.24 13.92 11.74 20.86 16.54 21 4.18-.92 6.79-9.35 7.78-25.42a183.21 183.21 0 00-3.16-47.39 260.11 260.11 0 00-13.51-45.62c-5.95-14.88-12.24-21.47-18.78-20.09-10.8 2.15-11.93 25.13-3.39 69.34v-.01zm-51.85-72.18c3.18 12.35 8 26.84 11.35 44.12 3.35 17.28 5.08 32.15 5.1 44.65.02 12.5-1.69 22.34-5 29.51-3.31 7.17-7.38 12.65-12.21 16.31a43.34 43.34 0 01-17.36 7.56c-27.51 5.87-47.09-21.22-59.3-81.65-8.77-43.57-7.91-70.94 3-82.34 10.91-11.4 22-18.43 33.18-21 4.17-.93 7.26-1.32 9.31-1 2.05.32 5 1.8 8.92 4.56a44.2 44.2 0 0111.25 12.43 88.46 88.46 0 0111.66 26.43l.1.42zm-49.12 52.41a203.9 203.9 0 0013 43.43c5.51 12.56 10.32 18.85 14.46 19 3.6-.79 5.76-8.33 6.45-22.76a172 172 0 00-3.2-42.58 245.46 245.46 0 00-12.09-41.11c-5.28-13.42-10.77-19.4-16.39-18.22-9.26 1.83-10.04 22.49-2.23 62.24z"/><path d="M112.27 168.54c8.8 19.213 7.823 52.63-2.93 100.25 7.82-2.667 17.153-3.917 28-3.75 10.847.167 18.973 6.143 24.38 17.93a33.77 33.77 0 011.7 24.39c-2.44 8.293-8.553 17.033-18.34 26.22a123.09 123.09 0 01-32.56 22l-8 3.71-18.11 7c-1.13-.59-9-17.21-24-49.52l-21.45-45.85c-14.38-30.91-26.89-61-38.2-89.9 3.66-6.11 9.74-12.57 18.5-19.3s17.49-11.65 26.24-14.65c31.9-10.75 53.44-3.69 64.82 21.12l-.05.35zm-54 4.85c-4.1 1.41-8.11 4.4-11.85 8.92l35 85.8c7.267-33.46 5.317-62.143-5.85-86.05-3.86-8.407-9.7-11.273-17.52-8.6l.22-.07zm67.38 125.81a20.74 20.74 0 00-10.49-10.19c-4.95-2.36-10.19-2.51-16-.54a29.63 29.63 0 00-6.32 3.13l18.32 40a30 30 0 006.92-4.15 26.93 26.93 0 006.64-6.65 20.92 20.92 0 002.93-9.11c.447-3.72-.357-7.823-2.41-12.31l.41-.18zM333.06 12.6c7.07-1.13 12.36-.16 15.85 2.76a18.13 18.13 0 016.3 12c.65 5-.61 10.37-3.81 15.87s-8.84 9-16.94 10.26c-8.1 1.26-14.23.77-18.39-1.59a14 14 0 01-7.26-10.47c-2.62-16.35 5.51-26 24.52-29l-.27.17zm41.42 207l-26.88 10.49-25.87-161.74 30.8-6.74 21.95 157.99zm40.03 14.75c-6.32.58-10.94-.71-13.87-3.73-2.93-3.02-4.48-7-4.79-11.84-.31-4.84 1.1-9.66 4.22-14.8 3.12-5.14 8.28-8 15.51-8.69 7.23-.69 12.62.27 16 2.82a13.78 13.78 0 015.77 10.32c1.547 15.56-6.157 24.113-23.11 25.66l.27.26zM389.1 15.57L421.91 9l5 170.7-25.24 2.3L389.1 15.57z"/></g><g fill="#FFF" fill-rule="nonzero"><path d="M328.57 133.55c3.53 13.72 8.9 29.79 12.6 49 3.7 19.21 5.48 35.74 5.35 49.66-.13 13.92-2.26 24.9-6.21 32.93-3.95 8.03-8.73 14.18-14.39 18.32a52.7 52.7 0 01-20.24 8.64c-32 6.89-54.39-23-67.77-90.15-9.62-48.41-8.27-78.9 4.53-91.74 12.8-12.84 25.78-20.81 38.79-23.86 4.85-1.1 8.44-1.57 10.81-1.29 2.37.28 5.81 1.94 10.3 5a48.41 48.41 0 0112.89 13.7 93.82 93.82 0 0113.2 29.28l.14.51zm-57.69 59c3.44 18.22 8.28 34.287 14.52 48.2 6.23 13.91 11.73 20.85 16.53 21 4.19-.93 6.79-9.36 7.79-25.43a183.16 183.16 0 00-3.17-47.38 259.83 259.83 0 00-13.5-45.62c-5.95-14.89-12.25-21.47-18.79-20.09-10.76 2.14-11.91 25.12-3.38 69.33v-.01zm-53.53-70.86c3.18 12.35 8 26.84 11.35 44.12 3.35 17.28 5.08 32.15 5.1 44.65.02 12.5-1.7 22.34-5 29.51-3.3 7.17-7.38 12.65-12.21 16.32a43.53 43.53 0 01-17.36 7.57c-27.52 5.87-47.1-21.21-59.3-81.64-8.77-43.58-7.91-70.94 3-82.35 10.91-11.41 22-18.43 33.19-21 4.17-.94 7.26-1.33 9.31-1 2.05.33 5 1.8 8.92 4.56a44.15 44.15 0 0111.25 12.42 88.42 88.42 0 0111.66 26.44l.09.4zm-49.13 52.42a204.55 204.55 0 0013 43.42c5.51 12.56 10.32 18.85 14.46 19 3.59-.79 5.76-8.34 6.45-22.76a172 172 0 00-3.2-42.59 246 246 0 00-12.09-41.1c-5.28-13.43-10.77-19.41-16.39-18.23-9.24 1.84-10.01 22.47-2.21 62.26h-.02z"/><path d="M122.78 148.58c8.8 19.2 7.823 52.613-2.93 100.24 7.813-2.667 17.147-3.913 28-3.74 10.853.173 18.977 6.147 24.37 17.92a33.73 33.73 0 011.71 24.39c-2.44 8.3-8.557 17.04-18.35 26.22a122.92 122.92 0 01-32.55 22l-8 3.7-18.11 7c-1.13-.59-9-17.2-24-49.52l-21.45-45.84c-14.39-30.92-26.89-61-38.2-89.9 3.66-6.12 9.74-12.58 18.5-19.3 8.76-6.72 17.49-11.66 26.24-14.65 31.9-10.76 53.503-3.723 64.81 21.11l-.04.37zm-54 4.85c-4.1 1.4-8.11 4.39-11.85 8.92l35 85.79c7.267-33.46 5.317-62.127-5.85-86-3.86-8.413-9.7-11.28-17.52-8.6l.22-.11zm67.37 125.81a20.76 20.76 0 00-10.49-10.2c-5-2.36-10.19-2.51-16-.54a29.39 29.39 0 00-6.31 3.14l18.31 40a30.29 30.29 0 006.93-4.16 26.93 26.93 0 006.64-6.65 21 21 0 002.93-9.11c.453-3.72-.35-7.823-2.41-12.31l.4-.17zM344.62 2.1c7.07-1.14 12.36-.17 15.85 2.75a18.13 18.13 0 016.3 12c.65 5-.61 10.37-3.81 15.87s-8.84 9-16.94 10.27c-8.1 1.27-14.23.76-18.39-1.6a14 14 0 01-7.28-10.53c-2.62-16.35 5.51-26 24.52-29l-.25.24zm41.42 207l-26.88 10.5-25.87-161.74 30.8-6.74 21.95 157.98zm39.47 16.25c-6.32.58-10.94-.71-13.87-3.73-2.93-3.02-4.48-7-4.79-11.84-.31-4.84 1.11-9.66 4.22-14.8 3.11-5.14 8.28-8 15.51-8.69 7.23-.69 12.62.27 16 2.81a13.84 13.84 0 015.77 10.33c1.56 15.56-6.143 24.113-23.11 25.66l.27.26zM400.1 6.57L432.91 0l5 170.69-25.25 2.31L400.1 6.57z"/></g></g></symbol><symbol viewBox="0 0 466 289" id="logo-small" xmlns="http://www.w3.org/2000/svg"><g fill-rule="evenodd"><g fill="none" stroke="currentColor" stroke-width="5"><path d="M316.598 132.428c-.165 14.14.884 31.088-.511 50.592-1.396 19.503-3.927 35.907-7.744 49.378-3.694 13.4-8.666 23.456-14.504 30.174-5.838 6.718-12.079 11.465-18.646 13.95-6.567 2.485-13.763 3.455-21.737 3.079-32.696-1.618-46.594-36.296-42.145-104.675 3.254-49.235 12.404-78.36 28.08-87.41 15.678-9.052 30.305-13.414 43.665-13.044 4.92.18 8.527.629 10.768 1.54 2.24.91 5.11 3.336 8.655 7.495 3.57 4.062 6.533 9.619 8.915 16.572 2.381 6.953 5.331 17.579 5.166 31.718l.038.631zm-70.907 42.082c-1.427 18.46-.86 35.28 1.53 50.31 2.392 15.032 5.892 23.216 10.503 24.555 4.29.218 9.001-7.32 14.108-22.515a182.884 182.884 0 009.177-46.613c1.018-15.775.605-31.621-1.238-47.54-1.939-15.946-6.22-23.926-12.957-24.282-10.904-.644-17.99 21.165-21.123 66.085zM214.22 91.434c-.118 12.806.791 27.957-.499 45.522-1.193 17.59-3.408 32.423-6.617 44.4-3.235 12.074-7.414 21.1-12.465 27.201-5.051 6.1-10.435 10.352-16.003 12.587-5.594 2.332-11.818 3.149-18.774 2.838-28.09-1.419-40.008-32.668-36.16-94.168 2.784-44.392 10.72-70.529 24.199-78.72 13.479-8.19 26.012-12.078 37.504-11.69 4.29.217 7.387.633 9.242 1.44 1.854.808 4.363 3.033 7.406 6.747 3.042 3.714 5.652 8.658 7.609 14.876 2.054 6.245 4.56 15.82 4.468 28.529l.09.438zm-60.99 37.906c-1.153 16.67-.752 31.789 1.325 45.286 2.052 13.594 5.083 20.826 9.088 22.106 3.685.159 7.751-6.516 12.18-20.341a173.107 173.107 0 007.935-41.977c.893-14.15.6-28.516-1.05-42.83-1.652-14.316-5.411-21.535-11.131-21.825-9.572-.598-15.58 19.119-18.346 59.581z"/><path d="M112.482 101.754c3.531 20.823-6.08 52.826-28.735 96.035 8.233-.589 17.624.685 28.004 3.673 10.38 2.989 16.748 10.907 18.936 23.605 1.503 8.686-.207 16.613-4.673 24.009-4.467 7.396-12.707 14.195-24.458 20.57-11.847 6.351-24.265 10.581-37.183 12.814l-8.685 1.503-19.295 2.077c-.907-.864-4.242-18.943-10.37-54.025l-8.914-49.804c-5.912-33.574-10.196-65.884-13.63-96.724 5.152-4.934 12.63-9.66 22.864-13.854 10.234-4.194 19.932-6.772 29.112-7.418 33.608-2.176 52.538 10.247 57.13 37.153l-.103.386zm-53.428-9.243c-4.323.291-8.963 2.153-13.798 5.517l11.6 91.935c15.722-30.47 21.193-58.613 16.56-84.597-1.593-9.123-6.445-13.425-14.678-12.836l.316-.02zm32.447 138.932c-.863-4.89-3.293-8.958-7.502-12.57-4.208-3.613-9.205-5.055-15.325-4.624-2.113.158-4.497.555-6.888 1.364l7.35 43.276c1.797-.14 4.381-.896 7.752-2.27 3.344-1.279 6.039-2.834 8.109-4.764 2.044-1.834 3.812-4.57 5.156-8.04 1.344-3.47 1.633-7.637.865-12.502l.483.13zM366.012 8.288c7.143.775 12.03 3.016 14.634 6.82 2.63 3.706 3.597 8.21 2.979 13.221-.618 5.01-3.271 9.89-7.786 14.375-4.514 4.484-10.83 6.415-18.99 5.575-8.16-.841-13.923-2.903-17.359-6.308-3.435-3.405-4.751-7.381-4.333-12.032 1.733-16.514 12.042-23.69 31.17-21.67l-.315.019zm-13.49 210.687l-28.7 3.18 16.859-162.99 31.484 1.5-19.643 158.31zm34.833 24.552c-6.24-1.051-10.348-3.497-12.469-7.171-2.025-3.649-2.535-7.927-1.582-12.64.926-4.618 3.573-9.086 7.887-13.21 4.314-4.123 10.088-5.579 17.224-4.391 7.135 1.187 12.093 3.55 14.73 6.845 2.637 3.295 3.592 7.071 2.84 11.425-2.492 15.482-12.227 21.674-28.965 18.845l.335.297zM419.45 25.608l33.39 2.115L413.49 193.9l-24.937-4.3L419.45 25.608z"/></g><g fill="currentColor" fill-rule="nonzero"><path d="M330.47 123.93c-.164 14.138.885 31.087-.51 50.59-1.396 19.504-3.928 35.908-7.745 49.379-3.694 13.4-8.666 23.456-14.504 30.174-5.837 6.718-12.078 11.465-18.645 13.95-6.567 2.485-13.764 3.455-21.738 3.078-32.695-1.617-46.593-36.296-42.144-104.674 3.254-49.235 12.404-78.36 28.08-87.41 15.677-9.052 30.305-13.414 43.664-13.044 4.921.18 8.528.628 10.768 1.54 2.241.91 5.111 3.336 8.655 7.495 3.57 4.062 6.533 9.618 8.915 16.572 2.381 6.953 5.332 17.579 5.167 31.718l.038.631zm-71.004 42.055c-1.426 18.46-.86 35.28 1.531 50.31 2.391 15.031 5.892 23.216 10.503 24.555 4.29.218 9.001-7.32 14.108-22.515a182.884 182.884 0 009.177-46.613c1.017-15.775.605-31.621-1.238-47.54-1.939-15.946-6.22-23.926-12.957-24.282-10.879-.74-17.99 21.165-21.124 66.085zM226.14 83.654c-.119 12.806.79 27.957-.5 45.522-1.193 17.59-3.407 32.423-6.616 44.4-3.236 12.074-7.414 21.1-12.465 27.2-5.051 6.101-10.435 10.353-16.003 12.588-5.568 2.235-11.818 3.149-18.774 2.838-28.09-1.419-40.008-32.668-36.16-94.168 2.784-44.392 10.72-70.529 24.198-78.72 13.48-8.19 26.013-12.078 37.504-11.69 4.29.217 7.388.633 9.242 1.44 1.855.808 4.364 3.033 7.407 6.747 3.042 3.714 5.651 8.658 7.609 14.876 2.053 6.245 4.56 15.82 4.468 28.529l.09.438zm-61.112 37.977c-1.154 16.67-.753 31.788 1.324 45.286 2.052 13.594 5.084 20.825 9.089 22.105 3.684.16 7.75-6.516 12.18-20.34a173.107 173.107 0 007.934-41.977c.893-14.151.601-28.516-1.05-42.831-1.651-14.315-5.411-21.534-11.13-21.825-9.476-.571-15.58 19.12-18.347 59.582z"/><path d="M127.8 85.153c3.532 20.823-6.079 52.827-28.734 96.035 8.233-.589 17.623.685 28.004 3.673 10.476 3.015 16.747 10.907 18.935 23.606 1.504 8.685-.206 16.612-4.673 24.008-4.466 7.396-12.707 14.195-24.457 20.571-11.848 6.35-24.265 10.58-37.184 12.813l-8.685 1.503-19.295 2.077c-.907-.864-4.241-18.943-10.37-54.025l-8.914-49.804c-5.912-33.574-10.195-65.884-13.63-96.724 5.152-4.934 12.63-9.66 22.865-13.854 10.234-4.194 19.931-6.772 29.111-7.418 33.609-2.175 52.539 10.247 57.131 37.153l-.103.386zM74.374 75.91c-4.323.291-8.963 2.154-13.798 5.517l11.6 91.935c15.722-30.47 21.192-58.612 16.56-84.597-1.593-9.123-6.445-13.425-14.678-12.836l.316-.02zm32.447 138.932c-.864-4.89-3.294-8.958-7.502-12.57-4.209-3.612-9.206-5.055-15.326-4.624-2.113.158-4.497.555-6.887 1.364l7.35 43.276c1.797-.14 4.38-.896 7.751-2.27 3.345-1.278 6.04-2.834 8.11-4.764 2.044-1.834 3.812-4.57 5.156-8.04 1.344-3.47 1.632-7.637.865-12.502l.483.13zM379.934 1.148c7.143.775 12.03 3.016 14.634 6.82 2.63 3.706 3.597 8.21 2.98 13.221-.619 5.01-3.272 9.89-7.786 14.375-4.515 4.484-10.83 6.416-18.99 5.575-8.16-.84-13.924-2.903-17.36-6.308-3.435-3.405-4.75-7.381-4.333-12.032C350.812 6.285 361.121-.89 380.25 1.13l-.316.019zm-13.586 210.661l-28.7 3.18L354.506 52l31.484 1.5-19.643 158.31zm33.962 25.871c-6.241-1.05-10.348-3.497-12.47-7.17-2.024-3.65-2.534-7.927-1.582-12.641.927-4.618 3.573-9.085 7.888-13.209 4.314-4.124 10.087-5.579 17.223-4.392 7.136 1.188 12.093 3.551 14.73 6.846 2.637 3.295 3.593 7.07 2.84 11.424-2.492 15.483-12.226 21.675-28.964 18.846l.334.297zm32.094-217.918l33.391 2.114-39.35 166.178-24.937-4.3 30.896-163.992z"/></g></g></symbol><symbol viewBox="0 0 311 11" id="progressbar" xmlns="http://www.w3.org/2000/svg"><defs><path id="cia" d="M0 9.843L8.871 0 12 1.157 3.13 11 0 9.843zm13 0L21.87 0 25 1.157 16.13 11 13 9.843zm12 0L33.87 0 37 1.157 28.13 11 25 9.843zm13 0L46.871 0 50 1.157 41.13 11 38 9.843zm13 0L59.87 0 63 1.157 54.13 11 51 9.843zm12 0L71.87 0 75 1.157 66.13 11 63 9.843zm12 0L83.87 0 87 1.157 78.13 11 75 9.843zm13 0L96.871 0 100 1.157 91.13 11 88 9.843zm12 0L108.87 0 112 1.157 103.13 11 100 9.843zm13 0L121.87 0 125 1.157 116.13 11 113 9.843zm13 0L134.87 0 138 1.157 129.13 11 126 9.843zm12 0L146.87 0 150 1.157 141.13 11 138 9.843zm13 0L159.87 0 163 1.157 154.13 11 151 9.843zm12 0L171.87 0 175 1.157 166.13 11 163 9.843zm12 0L183.87 0 187 1.157 178.13 11 175 9.843zm13 0L196.87 0 200 1.157 191.13 11 188 9.843zm12 0L208.87 0 212 1.157 203.13 11 200 9.843zm12 0L220.87 0 224 1.157 215.13 11 212 9.843zm13 0L233.87 0 237 1.157 228.13 11 225 9.843zm12 0L245.87 0 249 1.157 240.13 11 237 9.843zm12 0L257.87 0 261 1.157 252.13 11 249 9.843zm13 0L270.87 0 274 1.157 265.13 11 262 9.843zm12 0L282.87 0 286 1.157 277.13 11 274 9.843zm12 0L294.87 0 298 1.157 289.13 11 286 9.843zm13 0L307.87 0 311 1.157 302.13 11 299 9.843z"/></defs><g fill="none" fill-rule="evenodd"><mask id="cib" fill="#fff"><use xlink:href="#cia"/></mask><use fill="#757575" xlink:href="#cia"/><path stroke="#E9417D" stroke-linecap="square" stroke-width="11" d="M0 5.5h162.038" mask="url(#cib)"/></g></symbol>
</svg>